<?xml version="1.0" standalone="no"?><!DOCTYPE svg PUBLIC "-//W3C//DTD SVG 1.1//EN" "http://www.w3.org/Graphics/SVG/1.1/DTD/svg11.dtd"><svg height="238" node-id="1" sillyvg="true" template-height="238" template-width="256" version="1.1" viewBox="0 0 256 238" width="256" xmlns="http://www.w3.org/2000/svg" xmlns:xlink="http://www.w3.org/1999/xlink"><defs node-id="549"></defs><g node-id="1271"><g node-id="1273"><g node-id="1279"><g node-id="1343"><path d="M 248.11 108.69 C 248.11 69.40 216.18 37.54 176.79 37.54 C 176.18 37.54 175.57 37.57 174.96 37.59 C 162.53 16.74 139.73 2.76 113.64 2.76 C 74.25 2.76 42.31 34.62 42.31 73.92 C 42.31 74.43 42.34 74.93 42.35 75.44 C 42.35 96.71 6.27 110.78 6.27 137.29 C 6.27 176.58 38.21 208.44 77.59 208.44 C 79.84 208.44 82.05 208.32 84.24 208.12 C 113.13 208.12 117.11 234.01 139.27 234.01 C 175.68 234.01 205.69 206.79 210.04 171.64 C 220.06 147.11 248.11 136.01 248.11 108.69 Z" fill="#bddbff" fill-opacity="0.39" fill-rule="nonzero" group-id="1,3,9,73" node-id="555" stroke="none" target-height="231.244" target-width="241.84" target-x="6.272" target-y="2.762"></path></g></g></g><g node-id="1274"><g node-id="1280"><g node-id="1344"><path d="M 11.76 2.24 L 65.74 2.24 L 65.74 44.25 L 11.76 44.25 Z" fill="#ffffff" fill-rule="nonzero" group-id="1,4,10,74" node-id="565" stroke="none" target-height="42.016003" target-width="53.980995" target-x="11.761" target-y="2.238"></path><path d="M 65.74 45.75 L 11.76 45.75 C 10.93 45.75 10.26 45.08 10.26 44.25 L 10.26 2.24 C 10.26 1.41 10.93 0.74 11.76 0.74 L 65.74 0.74 C 66.57 0.74 67.24 1.41 67.24 2.24 L 67.24 44.25 C 67.24 45.08 66.57 45.75 65.74 45.75 Z M 13.26 42.75 L 64.24 42.75 L 64.24 3.74 L 13.26 3.74 L 13.26 42.75 Z" fill="#ccccde" fill-rule="nonzero" group-id="1,4,10,74" node-id="567" stroke="none" target-height="45.016003" target-width="56.980995" target-x="10.261" target-y="0.738"></path></g><g node-id="1345"><path d="M 16.76 6.82 L 60.18 6.82 L 60.18 39.36 L 16.76 39.36 Z" fill="#d6f1ff" fill-rule="nonzero" group-id="1,4,10,75" node-id="571" stroke="none" target-height="32.536" target-width="43.420998" target-x="16.759" target-y="6.824"></path></g><g node-id="1346"><g node-id="1350"><path d="M 16.76 20.12 C 16.76 20.12 18.45 17.75 22.70 17.75 C 26.94 17.75 24.05 14.87 29.14 14.87 C 34.23 14.87 37.45 12.32 43.56 14.70 C 49.67 17.07 60.18 17.19 60.18 17.19 L 60.32 25.71 L 16.76 28.09 L 16.76 20.12 L 16.76 20.12 Z" fill="#000000" fill-opacity="0.0376" fill-rule="nonzero" group-id="1,4,10,76,80" node-id="577" stroke="none" target-height="15.771999" target-width="43.560997" target-x="16.759" target-y="12.323"></path></g><path d="M 37.39 21.52 L 16.76 33.59 L 16.76 39.25 L 60.32 39.25 Z" fill="#ffe5b0" fill-opacity="0.47" fill-rule="nonzero" group-id="1,4,10,76" node-id="580" stroke="none" target-height="17.736998" target-width="43.559" target-x="16.759" target-y="21.516"></path><path d="M 16.76 26.18 C 16.76 26.18 23.13 22.51 27.13 22.87 C 31.13 23.24 24.55 29.03 24.55 29.03 L 16.76 33.59 L 16.76 26.18 Z" fill="#ffe5b0" fill-opacity="0.47" fill-rule="nonzero" group-id="1,4,10,76" node-id="582" stroke="none" target-height="11.083" target-width="14.366999" target-x="16.759" target-y="22.506"></path><path d="M 27.13 22.87 C 27.13 22.87 28.51 23.48 25.54 24.63 C 22.57 25.78 21.60 30.83 26.44 28.38 C 31.28 25.93 37.39 21.52 37.39 21.52 C 37.39 21.52 33.08 24.23 27.13 22.87 Z" fill="#f2d9a6" fill-opacity="0.47" fill-rule="nonzero" group-id="1,4,10,76" node-id="584" stroke="none" target-height="9.316" target-width="15.787001" target-x="21.6" target-y="21.517"></path><path d="M 43.56 21.64 C 43.56 21.64 49.04 18.24 60.13 20.47 L 60.32 23.79 L 43.56 21.64 Z" fill="#ffe5b0" fill-opacity="0.47" fill-rule="nonzero" group-id="1,4,10,76" node-id="586" stroke="none" target-height="5.549" target-width="16.757004" target-x="43.559" target-y="18.243"></path><path d="M 26.44 28.38 C 28.47 27.36 30.73 25.98 32.66 24.73 C 28.42 24.33 27.76 23.00 27.76 23.00 L 27.76 23.00 C 27.55 22.96 27.34 22.92 27.13 22.87 C 27.13 22.87 28.51 23.48 25.54 24.63 C 22.57 25.78 21.60 30.83 26.44 28.38 Z" fill="#d6c093" fill-opacity="0.47" fill-rule="nonzero" group-id="1,4,10,76" node-id="588" stroke="none" target-height="7.960001" target-width="11.062998" target-x="21.599" target-y="22.873"></path><path d="M 45.67 20.75 C 45.67 20.75 53.81 20.77 60.22 22.11 L 60.32 23.79 L 45.67 20.75 Z" fill="#d6c093" fill-opacity="0.19739999" fill-rule="nonzero" group-id="1,4,10,76,81" node-id="592" stroke="none" target-height="3.045" target-width="14.650002" target-x="45.668" target-y="20.746"></path><path d="M 41.93 20.42 C 41.93 20.42 34.46 19.81 38.19 24.55 C 41.93 29.30 60.32 39.25 60.32 39.25 L 60.32 23.79 C 60.32 23.79 47.18 20.42 41.93 20.42 Z" fill="#d6c093" fill-opacity="0.47" fill-rule="nonzero" group-id="1,4,10,76,82" node-id="597" stroke="none" target-height="19.441998" target-width="25.86" target-x="34.459" target-y="19.811"></path><path d="M 16.76 34.66 C 16.76 34.66 28.31 32.26 33.73 24.81 C 33.73 24.81 30.67 30.93 16.76 37.20 L 16.76 34.66 Z" fill="#d6c093" fill-opacity="0.1269" fill-rule="nonzero" group-id="1,4,10,76,83" node-id="602" stroke="none" target-height="12.395" target-width="16.969" target-x="16.759" target-y="24.806"></path><path d="M 39.01 25.46 C 39.01 25.46 49.50 33.84 51.53 39.25 L 60.32 39.25 L 39.01 25.46 Z" fill="#d6c093" fill-opacity="0.1175" fill-rule="nonzero" group-id="1,4,10,76,84" node-id="607" stroke="none" target-height="13.790998" target-width="21.304" target-x="39.014" target-y="25.462"></path><path d="M 40.57 25.85 C 36.21 20.38 44.94 21.09 44.94 21.09 C 45.88 21.09 46.89 21.09 47.92 21.10 C 45.60 20.70 43.44 20.42 41.93 20.42 C 41.93 20.42 34.46 19.81 38.19 24.55 C 39.85 26.66 44.38 29.78 48.92 32.61 C 45.53 30.41 42.26 27.96 40.57 25.85 Z M 60.01 23.71 L 60.01 39.06 C 60.01 39.06 59.58 38.83 58.84 38.44 C 59.77 38.95 60.32 39.25 60.32 39.25 L 60.32 23.79 C 60.32 23.79 60.21 23.76 60.01 23.71 Z" fill="#c7b289" fill-opacity="0.47" fill-rule="nonzero" group-id="1,4,10,76,85" node-id="612" stroke="none" target-height="19.439999" target-width="25.859001" target-x="34.459" target-y="19.811"></path><path d="M 26.56 24.63 C 27.68 24.20 28.18 23.84 28.37 23.57 C 27.89 23.25 27.76 23.00 27.76 23.00 C 27.76 23.00 27.76 23.00 27.76 23.00 C 27.55 22.96 27.34 22.92 27.13 22.87 C 27.13 22.87 28.51 23.48 25.54 24.64 C 22.96 25.63 21.89 29.58 24.83 28.98 C 23.24 28.52 24.34 25.49 26.56 24.63 Z" fill="#c7b289" fill-opacity="0.47" fill-rule="nonzero" group-id="1,4,10,76,86" node-id="617" stroke="none" target-height="6.7060013" target-width="6.623001" target-x="21.887" target-y="22.873"></path></g></g><g node-id="1281"><path d="M 4.82 44.25 L 161.40 44.25 L 161.40 57.17 L 4.82 57.17 Z" fill="#ffffff" fill-rule="nonzero" group-id="1,4,11" node-id="624" stroke="none" target-height="12.911999" target-width="156.58801" target-x="4.816" target-y="44.254"></path><path d="M 162.90 58.67 L 3.32 58.67 L 3.32 42.75 L 162.90 42.75 L 162.90 58.67 Z M 6.32 55.67 L 159.90 55.67 L 159.90 45.75 L 6.32 45.75 L 6.32 55.67 Z" fill="#ccccde" fill-rule="nonzero" group-id="1,4,11" node-id="626" stroke="none" target-height="15.911999" target-width="159.58801" target-x="3.316" target-y="42.754"></path></g><g node-id="1282"><path d="M 80.57 2.24 L 92.44 2.24 L 92.44 44.25 L 80.57 44.25 Z" fill="#f0f0ff" fill-rule="nonzero" group-id="1,4,12" node-id="631" stroke="none" target-height="42.016003" target-width="11.872002" target-x="80.57" target-y="2.238"></path><path d="M 92.44 45.75 L 80.57 45.75 C 79.74 45.75 79.07 45.08 79.07 44.25 L 79.07 2.24 C 79.07 1.41 79.74 0.74 80.57 0.74 L 92.44 0.74 C 93.27 0.74 93.94 1.41 93.94 2.24 L 93.94 44.25 C 93.94 45.08 93.27 45.75 92.44 45.75 Z M 82.07 42.75 L 90.94 42.75 L 90.94 3.74 L 82.07 3.74 L 82.07 42.75 Z" fill="#ccccde" fill-rule="nonzero" group-id="1,4,12" node-id="633" stroke="none" target-height="45.016003" target-width="14.872002" target-x="79.07" target-y="0.738"></path></g><g node-id="1283"><path d="M 92.03 2.24 L 103.91 2.24 L 103.91 44.25 L 92.03 44.25 Z" fill="#bff4ff" fill-rule="nonzero" group-id="1,4,13" node-id="638" stroke="none" target-height="42.016003" target-width="11.873001" target-x="92.034" target-y="2.238"></path><path d="M 103.91 45.75 L 92.03 45.75 C 91.20 45.75 90.53 45.08 90.53 44.25 L 90.53 2.24 C 90.53 1.41 91.20 0.74 92.03 0.74 L 103.91 0.74 C 104.74 0.74 105.41 1.41 105.41 2.24 L 105.41 44.25 C 105.41 45.08 104.74 45.75 103.91 45.75 Z M 93.53 42.75 L 102.41 42.75 L 102.41 3.74 L 93.53 3.74 L 93.53 42.75 Z" fill="#ccccde" fill-rule="nonzero" group-id="1,4,13" node-id="640" stroke="none" target-height="45.016003" target-width="14.873001" target-x="90.534" target-y="0.738"></path></g><g node-id="1284"><path d="M 103.91 2.24 L 115.78 2.24 L 115.78 44.25 L 103.91 44.25 Z" fill="#f4ffba" fill-rule="nonzero" group-id="1,4,14" node-id="645" stroke="none" target-height="42.016003" target-width="11.872002" target-x="103.906" target-y="2.238"></path><path d="M 115.78 45.75 L 103.91 45.75 C 103.08 45.75 102.41 45.08 102.41 44.25 L 102.41 2.24 C 102.41 1.41 103.08 0.74 103.91 0.74 L 115.78 0.74 C 116.61 0.74 117.28 1.41 117.28 2.24 L 117.28 44.25 C 117.28 45.08 116.61 45.75 115.78 45.75 Z M 105.41 42.75 L 114.28 42.75 L 114.28 3.74 L 105.41 3.74 L 105.41 42.75 Z" fill="#ccccde" fill-rule="nonzero" group-id="1,4,14" node-id="647" stroke="none" target-height="45.016003" target-width="14.872002" target-x="102.407" target-y="0.738"></path></g><g node-id="1285"><g node-id="1347"><path d="M 147.73 38.54 L 138.36 44.26 L 116.46 8.40 L 125.82 2.68 Z" fill="#ffdbdb" fill-rule="nonzero" group-id="1,4,15,77" node-id="654" stroke="none" target-height="41.58251" target-width="31.272476" target-x="116.4577" target-y="2.6800003"></path></g><path d="M 138.37 45.76 C 137.86 45.76 137.37 45.51 137.09 45.05 L 115.18 9.19 C 114.75 8.48 114.97 7.56 115.68 7.12 L 125.05 1.40 C 125.39 1.19 125.80 1.13 126.18 1.22 C 126.57 1.32 126.90 1.56 127.11 1.90 L 149.01 37.76 C 149.22 38.10 149.28 38.51 149.19 38.89 C 149.10 39.28 148.85 39.62 148.52 39.82 L 139.15 45.54 C 138.91 45.69 138.63 45.76 138.37 45.76 Z M 118.52 8.90 L 138.86 42.20 L 145.67 38.04 L 125.33 4.74 L 118.52 8.90 Z" fill="#ccccde" fill-rule="nonzero" group-id="1,4,15" node-id="657" stroke="none" target-height="44.633" target-width="34.535004" target-x="114.75" target-y="1.131"></path></g></g><g node-id="1275"><path d="M 244.98 86.60 C 244.98 109.04 226.79 127.24 204.34 127.24 C 181.89 127.24 163.70 109.04 163.70 86.60 C 163.70 64.15 181.89 45.95 204.34 45.95 C 226.79 45.95 244.98 64.15 244.98 86.60 Z" fill="#e0ecff" fill-rule="nonzero" group-id="1,5" node-id="662" stroke="none" target-height="81.287994" target-width="81.287994" target-x="163.696" target-y="45.953"></path><path d="M 238.33 86.55 C 238.33 105.30 223.13 120.50 204.38 120.50 C 185.63 120.50 170.44 105.30 170.44 86.55 C 170.44 67.80 185.63 52.60 204.38 52.60 C 223.13 52.60 238.33 67.80 238.33 86.55 Z" fill="#f2faff" fill-rule="nonzero" group-id="1,5" node-id="664" stroke="none" target-height="67.897995" target-width="67.897995" target-x="170.435" target-y="52.601"></path><path d="M 191.88 66.29 C 191.37 66.29 190.86 66.02 190.58 65.53 L 188.15 61.32 C 187.74 60.60 187.98 59.68 188.70 59.27 C 189.41 58.85 190.34 59.10 190.75 59.82 L 193.18 64.04 C 193.60 64.75 193.35 65.67 192.63 66.08 C 192.40 66.22 192.14 66.29 191.88 66.29 Z" fill="#ccccde" fill-rule="nonzero" group-id="1,5" node-id="666" stroke="none" target-height="7.4310036" target-width="5.8589935" target-x="187.737" target-y="58.855"></path><path d="M 182.70 75.46 C 182.44 75.46 182.19 75.40 181.95 75.26 L 177.74 72.83 C 177.02 72.42 176.77 71.50 177.19 70.78 C 177.60 70.07 178.52 69.82 179.24 70.23 L 183.45 72.66 C 184.17 73.08 184.41 74.00 184.00 74.71 C 183.72 75.19 183.22 75.46 182.70 75.46 Z" fill="#ccccde" fill-rule="nonzero" group-id="1,5" node-id="668" stroke="none" target-height="5.643997" target-width="7.6389923" target-x="176.774" target-y="69.82"></path><path d="M 178.49 102.98 C 177.97 102.98 177.47 102.72 177.19 102.23 C 176.78 101.52 177.02 100.60 177.74 100.19 L 181.95 97.75 C 182.67 97.34 183.59 97.58 184.00 98.30 C 184.41 99.02 184.17 99.94 183.45 100.35 L 179.24 102.78 C 179.00 102.92 178.74 102.98 178.49 102.98 Z" fill="#ccccde" fill-rule="nonzero" group-id="1,5" node-id="670" stroke="none" target-height="5.6460037" target-width="7.6390076" target-x="176.775" target-y="97.339"></path><path d="M 189.45 113.95 C 189.19 113.95 188.94 113.89 188.70 113.75 C 187.98 113.33 187.74 112.42 188.15 111.70 L 190.58 107.48 C 191.00 106.77 191.92 106.52 192.63 106.93 C 193.35 107.35 193.60 108.26 193.18 108.98 L 190.75 113.20 C 190.47 113.68 189.97 113.95 189.45 113.95 Z" fill="#ccccde" fill-rule="nonzero" group-id="1,5" node-id="672" stroke="none" target-height="7.4300003" target-width="5.8589935" target-x="187.737" target-y="106.52"></path><path d="M 219.41 113.95 C 218.89 113.95 218.38 113.68 218.10 113.20 L 215.67 108.98 C 215.26 108.27 215.50 107.35 216.22 106.93 C 216.94 106.52 217.85 106.77 218.27 107.48 L 220.70 111.70 C 221.12 112.42 220.87 113.33 220.15 113.75 C 219.92 113.88 219.66 113.95 219.41 113.95 Z" fill="#ccccde" fill-rule="nonzero" group-id="1,5" node-id="674" stroke="none" target-height="7.429001" target-width="5.8610077" target-x="215.256" target-y="106.519"></path><path d="M 230.37 102.98 C 230.11 102.98 229.85 102.92 229.62 102.78 L 225.40 100.35 C 224.69 99.94 224.44 99.02 224.85 98.30 C 225.27 97.58 226.18 97.34 226.90 97.75 L 231.12 100.18 C 231.83 100.60 232.08 101.52 231.66 102.23 C 231.39 102.71 230.88 102.98 230.37 102.98 Z" fill="#ccccde" fill-rule="nonzero" group-id="1,5" node-id="676" stroke="none" target-height="5.644005" target-width="7.6399994" target-x="224.439" target-y="97.339"></path><path d="M 226.15 75.46 C 225.63 75.46 225.13 75.19 224.85 74.71 C 224.44 74.00 224.69 73.08 225.40 72.66 L 229.62 70.23 C 230.33 69.82 231.25 70.06 231.67 70.78 C 232.08 71.50 231.83 72.42 231.12 72.83 L 226.90 75.26 C 226.67 75.40 226.41 75.46 226.15 75.46 Z" fill="#ccccde" fill-rule="nonzero" group-id="1,5" node-id="678" stroke="none" target-height="5.645996" target-width="7.6399994" target-x="224.44" target-y="69.818"></path><path d="M 216.97 66.28 C 216.71 66.28 216.46 66.22 216.22 66.08 C 215.50 65.67 215.26 64.75 215.67 64.03 L 218.10 59.82 C 218.52 59.10 219.44 58.85 220.15 59.27 C 220.87 59.68 221.12 60.60 220.70 61.32 L 218.27 65.53 C 217.99 66.02 217.49 66.28 216.97 66.28 Z" fill="#ccccde" fill-rule="nonzero" group-id="1,5" node-id="680" stroke="none" target-height="7.428997" target-width="5.8610077" target-x="215.256" target-y="58.855"></path><g node-id="1286"><path d="M 204.43 59.52 C 203.60 59.52 202.93 58.84 202.93 58.02 L 202.93 56.56 C 202.93 55.73 203.60 55.06 204.43 55.06 C 205.25 55.06 205.93 55.73 205.93 56.56 L 205.93 58.02 C 205.93 58.84 205.25 59.52 204.43 59.52 Z" fill="#ccccde" fill-opacity="0.39" fill-rule="nonzero" group-id="1,5,16" node-id="684" stroke="none" target-height="4.459999" target-width="3" target-x="202.926" target-y="55.056"></path><path d="M 199.48 59.95 C 198.76 59.95 198.13 59.44 198.00 58.71 L 197.75 57.27 C 197.60 56.46 198.15 55.68 198.96 55.53 C 199.78 55.39 200.56 55.93 200.70 56.75 L 200.96 58.19 C 201.10 59.00 200.56 59.78 199.74 59.92 C 199.65 59.94 199.56 59.95 199.48 59.95 Z" fill="#ccccde" fill-opacity="0.39" fill-rule="nonzero" group-id="1,5,16" node-id="686" stroke="none" target-height="4.5600014" target-width="3.4970093" target-x="197.603" target-y="55.389"></path><path d="M 194.68 61.23 C 194.07 61.23 193.49 60.85 193.27 60.24 L 192.77 58.87 C 192.49 58.09 192.89 57.23 193.67 56.95 C 194.45 56.67 195.31 57.07 195.59 57.85 L 196.09 59.22 C 196.37 60.00 195.97 60.86 195.19 61.14 C 195.02 61.20 194.85 61.23 194.68 61.23 Z" fill="#ccccde" fill-opacity="0.39" fill-rule="nonzero" group-id="1,5,16" node-id="688" stroke="none" target-height="4.5620003" target-width="3.8809967" target-x="192.491" target-y="56.671"></path><path d="M 190.18 63.33 C 189.66 63.33 189.16 63.06 188.88 62.58 L 188.15 61.32 C 187.74 60.60 187.98 59.68 188.70 59.27 C 189.42 58.86 190.34 59.10 190.75 59.82 L 191.48 61.08 C 191.89 61.80 191.65 62.72 190.93 63.13 C 190.69 63.27 190.44 63.33 190.18 63.33 Z" fill="#ccccde" fill-opacity="0.39" fill-rule="nonzero" group-id="1,5,16" node-id="690" stroke="none" target-height="4.477001" target-width="4.1559906" target-x="187.738" target-y="58.856"></path><path d="M 186.11 66.18 C 185.68 66.18 185.26 66.00 184.96 65.64 L 184.03 64.53 C 183.49 63.89 183.58 62.94 184.21 62.41 C 184.85 61.88 185.80 61.97 186.32 62.60 L 187.26 63.72 C 187.79 64.36 187.71 65.30 187.07 65.83 C 186.79 66.07 186.45 66.18 186.11 66.18 Z" fill="#ccccde" fill-opacity="0.39" fill-rule="nonzero" group-id="1,5,16" node-id="692" stroke="none" target-height="4.301998" target-width="4.30101" target-x="183.493" target-y="61.881"></path><path d="M 182.60 69.69 C 182.26 69.69 181.91 69.58 181.63 69.34 L 180.52 68.40 C 179.88 67.87 179.80 66.92 180.33 66.29 C 180.87 65.66 181.81 65.57 182.45 66.11 L 183.56 67.04 C 184.20 67.58 184.28 68.52 183.75 69.16 C 183.45 69.51 183.03 69.69 182.60 69.69 Z" fill="#ccccde" fill-opacity="0.39" fill-rule="nonzero" group-id="1,5,16" node-id="694" stroke="none" target-height="4.1200027" target-width="4.4799957" target-x="179.8" target-y="65.573"></path><path d="M 179.75 73.76 C 179.49 73.76 179.23 73.70 179.00 73.56 L 177.74 72.83 C 177.02 72.42 176.77 71.50 177.19 70.78 C 177.60 70.06 178.53 69.82 179.24 70.23 L 180.50 70.96 C 181.22 71.38 181.46 72.30 181.05 73.01 C 180.77 73.49 180.26 73.76 179.75 73.76 Z" fill="#ccccde" fill-opacity="0.39" fill-rule="nonzero" group-id="1,5,16" node-id="696" stroke="none" target-height="3.941002" target-width="4.6869965" target-x="176.774" target-y="69.821"></path><path d="M 177.65 78.27 C 177.48 78.27 177.31 78.24 177.13 78.17 L 175.77 77.67 C 174.99 77.39 174.59 76.53 174.88 75.75 C 175.16 74.97 176.02 74.57 176.80 74.86 L 178.17 75.36 C 178.95 75.64 179.34 76.50 179.06 77.28 C 178.84 77.89 178.26 78.27 177.65 78.27 Z" fill="#ccccde" fill-opacity="0.39" fill-rule="nonzero" group-id="1,5,16" node-id="698" stroke="none" target-height="3.6969986" target-width="4.755005" target-x="174.59" target-y="74.569"></path><path d="M 176.37 83.06 C 176.28 83.06 176.19 83.05 176.10 83.04 L 174.67 82.78 C 173.85 82.64 173.31 81.86 173.45 81.05 C 173.60 80.23 174.37 79.69 175.19 79.83 L 176.63 80.08 C 177.44 80.23 177.99 81.01 177.84 81.82 C 177.71 82.55 177.08 83.06 176.37 83.06 Z" fill="#ccccde" fill-opacity="0.39" fill-rule="nonzero" group-id="1,5,16" node-id="700" stroke="none" target-height="3.3759995" target-width="4.6789856" target-x="173.307" target-y="79.686"></path><path d="M 175.93 88.01 C 175.93 88.01 175.93 88.01 175.93 88.01 L 174.47 88.01 C 173.65 88.01 172.97 87.33 172.97 86.51 C 172.98 85.68 173.65 85.01 174.47 85.01 C 174.48 85.01 174.48 85.01 174.48 85.01 L 175.93 85.01 C 176.76 85.01 177.43 85.68 177.43 86.51 C 177.43 87.34 176.76 88.01 175.93 88.01 Z" fill="#ccccde" fill-opacity="0.39" fill-rule="nonzero" group-id="1,5,16" node-id="702" stroke="none" target-height="3.001999" target-width="4.4589996" target-x="172.974" target-y="85.008"></path><path d="M 174.93 93.21 C 174.21 93.21 173.58 92.70 173.45 91.97 C 173.31 91.15 173.85 90.38 174.67 90.23 L 176.10 89.98 C 176.92 89.84 177.70 90.38 177.84 91.20 C 177.99 92.01 177.44 92.79 176.63 92.93 L 175.19 93.19 C 175.10 93.20 175.01 93.21 174.93 93.21 Z" fill="#ccccde" fill-opacity="0.39" fill-rule="nonzero" group-id="1,5,16" node-id="704" stroke="none" target-height="3.373001" target-width="4.679001" target-x="173.308" target-y="89.837"></path><path d="M 176.28 98.25 C 175.67 98.25 175.09 97.87 174.87 97.26 C 174.59 96.49 174.99 95.62 175.77 95.34 L 177.14 94.84 C 177.92 94.56 178.78 94.96 179.06 95.74 C 179.34 96.52 178.94 97.38 178.16 97.66 L 176.80 98.16 C 176.63 98.22 176.45 98.25 176.28 98.25 Z" fill="#ccccde" fill-opacity="0.39" fill-rule="nonzero" group-id="1,5,16" node-id="706" stroke="none" target-height="3.691002" target-width="4.7529907" target-x="174.591" target-y="94.561"></path><path d="M 178.49 102.98 C 177.97 102.98 177.47 102.72 177.19 102.24 C 176.78 101.52 177.02 100.60 177.74 100.19 L 179.00 99.45 C 179.72 99.04 180.63 99.28 181.05 100.00 C 181.46 100.72 181.22 101.64 180.50 102.05 L 179.24 102.78 C 179.00 102.92 178.74 102.98 178.49 102.98 Z" fill="#ccccde" fill-opacity="0.39" fill-rule="nonzero" group-id="1,5,16" node-id="708" stroke="none" target-height="3.9430008" target-width="4.6890106" target-x="176.775" target-y="99.042"></path><path d="M 181.48 107.26 C 181.06 107.26 180.63 107.08 180.33 106.73 C 179.80 106.09 179.88 105.14 180.52 104.61 L 181.64 103.67 C 182.27 103.14 183.22 103.22 183.75 103.86 C 184.28 104.49 184.20 105.44 183.56 105.97 L 182.45 106.91 C 182.16 107.15 181.82 107.26 181.48 107.26 Z" fill="#ccccde" fill-opacity="0.39" fill-rule="nonzero" group-id="1,5,16" node-id="710" stroke="none" target-height="4.1200027" target-width="4.481003" target-x="179.801" target-y="103.141"></path><path d="M 185.17 110.95 C 184.84 110.95 184.49 110.84 184.21 110.61 C 183.58 110.08 183.49 109.13 184.02 108.49 L 184.96 107.37 C 185.49 106.74 186.44 106.65 187.07 107.18 C 187.71 107.71 187.79 108.66 187.26 109.30 L 186.33 110.42 C 186.03 110.77 185.60 110.95 185.17 110.95 Z" fill="#ccccde" fill-opacity="0.39" fill-rule="nonzero" group-id="1,5,16" node-id="712" stroke="none" target-height="4.3050003" target-width="4.302994" target-x="183.492" target-y="106.65"></path><path d="M 189.45 113.95 C 189.19 113.95 188.94 113.89 188.70 113.75 C 187.98 113.33 187.74 112.42 188.15 111.70 L 188.88 110.44 C 189.30 109.72 190.21 109.47 190.93 109.89 C 191.65 110.30 191.89 111.22 191.48 111.94 L 190.75 113.20 C 190.47 113.68 189.97 113.95 189.45 113.95 Z" fill="#ccccde" fill-opacity="0.39" fill-rule="nonzero" group-id="1,5,16" node-id="714" stroke="none" target-height="4.4769974" target-width="4.156006" target-x="187.737" target-y="109.473"></path><path d="M 194.18 116.16 C 194.01 116.16 193.84 116.13 193.67 116.06 C 192.89 115.78 192.49 114.92 192.77 114.14 L 193.27 112.77 C 193.56 111.99 194.42 111.59 195.19 111.87 C 195.97 112.16 196.38 113.02 196.09 113.80 L 195.59 115.17 C 195.37 115.78 194.79 116.16 194.18 116.16 Z" fill="#ccccde" fill-opacity="0.39" fill-rule="nonzero" group-id="1,5,16" node-id="716" stroke="none" target-height="4.5639954" target-width="3.8870087" target-x="192.489" target-y="111.591"></path><path d="M 199.23 117.51 C 199.14 117.51 199.05 117.50 198.97 117.48 C 198.15 117.34 197.60 116.56 197.75 115.75 L 198.00 114.31 C 198.15 113.49 198.93 112.95 199.74 113.09 C 200.55 113.23 201.10 114.01 200.96 114.83 L 200.70 116.27 C 200.57 117.00 199.94 117.51 199.23 117.51 Z" fill="#ccccde" fill-opacity="0.39" fill-rule="nonzero" group-id="1,5,16" node-id="718" stroke="none" target-height="4.5560074" target-width="3.4940033" target-x="197.605" target-y="112.951"></path><path d="M 204.43 117.96 C 203.60 117.96 202.93 117.29 202.93 116.46 L 202.93 115.00 C 202.93 114.17 203.60 113.50 204.43 113.50 C 205.25 113.50 205.93 114.17 205.93 115.00 L 205.93 116.46 C 205.93 117.29 205.25 117.96 204.43 117.96 Z" fill="#ccccde" fill-opacity="0.39" fill-rule="nonzero" group-id="1,5,16" node-id="720" stroke="none" target-height="4.461998" target-width="3" target-x="202.927" target-y="113.5"></path><path d="M 209.62 117.51 C 208.91 117.51 208.28 116.99 208.15 116.27 L 207.90 114.83 C 207.75 114.01 208.30 113.23 209.12 113.09 C 209.94 112.95 210.71 113.49 210.85 114.31 L 211.10 115.75 C 211.25 116.56 210.70 117.34 209.88 117.48 C 209.80 117.50 209.71 117.51 209.62 117.51 Z" fill="#ccccde" fill-opacity="0.39" fill-rule="nonzero" group-id="1,5,16" node-id="722" stroke="none" target-height="4.5550003" target-width="3.4929962" target-x="207.754" target-y="112.952"></path><path d="M 214.67 116.16 C 214.06 116.16 213.48 115.78 213.26 115.17 L 212.76 113.80 C 212.48 113.02 212.88 112.16 213.66 111.87 C 214.44 111.59 215.30 111.99 215.58 112.77 L 216.08 114.14 C 216.36 114.92 215.96 115.78 215.18 116.06 C 215.01 116.12 214.84 116.16 214.67 116.16 Z" fill="#ccccde" fill-opacity="0.39" fill-rule="nonzero" group-id="1,5,16" node-id="724" stroke="none" target-height="4.5639954" target-width="3.8849945" target-x="212.479" target-y="111.591"></path><path d="M 219.41 113.95 C 218.89 113.95 218.38 113.68 218.10 113.20 L 217.38 111.93 C 216.96 111.22 217.21 110.30 217.93 109.88 C 218.64 109.47 219.56 109.72 219.97 110.44 L 220.70 111.70 C 221.12 112.42 220.87 113.34 220.15 113.75 C 219.92 113.89 219.66 113.95 219.41 113.95 Z" fill="#ccccde" fill-opacity="0.39" fill-rule="nonzero" group-id="1,5,16" node-id="726" stroke="none" target-height="4.4789963" target-width="4.154999" target-x="216.962" target-y="109.471"></path><path d="M 223.68 110.95 C 223.25 110.95 222.83 110.77 222.53 110.42 L 221.59 109.30 C 221.06 108.66 221.14 107.72 221.78 107.18 C 222.41 106.65 223.36 106.74 223.89 107.37 L 224.83 108.49 C 225.36 109.13 225.28 110.07 224.65 110.61 C 224.36 110.84 224.02 110.95 223.68 110.95 Z" fill="#ccccde" fill-opacity="0.39" fill-rule="nonzero" group-id="1,5,16" node-id="728" stroke="none" target-height="4.3030014" target-width="4.302002" target-x="221.061" target-y="106.652"></path><path d="M 227.37 107.26 C 227.03 107.26 226.69 107.15 226.41 106.91 L 225.29 105.97 C 224.65 105.44 224.57 104.49 225.10 103.86 C 225.64 103.22 226.58 103.14 227.22 103.67 L 228.34 104.61 C 228.97 105.14 229.05 106.09 228.52 106.72 C 228.22 107.08 227.80 107.26 227.37 107.26 Z" fill="#ccccde" fill-opacity="0.39" fill-rule="nonzero" group-id="1,5,16" node-id="730" stroke="none" target-height="4.1200027" target-width="4.481003" target-x="224.571" target-y="103.141"></path><path d="M 230.37 102.98 C 230.11 102.98 229.85 102.92 229.61 102.78 L 228.35 102.05 C 227.63 101.64 227.39 100.72 227.81 100.00 C 228.22 99.28 229.14 99.04 229.85 99.45 L 231.12 100.19 C 231.84 100.60 232.08 101.52 231.66 102.24 C 231.39 102.72 230.88 102.98 230.37 102.98 Z" fill="#ccccde" fill-opacity="0.39" fill-rule="nonzero" group-id="1,5,16" node-id="732" stroke="none" target-height="3.9420013" target-width="4.6889954" target-x="227.39" target-y="99.043"></path><path d="M 232.57 98.25 C 232.40 98.25 232.22 98.22 232.06 98.16 L 230.69 97.66 C 229.91 97.38 229.51 96.51 229.80 95.74 C 230.08 94.96 230.94 94.56 231.72 94.84 L 233.09 95.34 C 233.86 95.63 234.26 96.49 233.98 97.27 C 233.76 97.88 233.18 98.25 232.57 98.25 Z" fill="#ccccde" fill-opacity="0.39" fill-rule="nonzero" group-id="1,5,16" node-id="734" stroke="none" target-height="3.6940002" target-width="4.753006" target-x="229.511" target-y="94.558"></path><path d="M 233.93 93.21 C 233.84 93.21 233.75 93.20 233.66 93.19 L 232.22 92.93 C 231.41 92.79 230.87 92.01 231.01 91.19 C 231.15 90.38 231.93 89.84 232.75 89.98 L 234.19 90.23 C 235.00 90.38 235.54 91.16 235.40 91.97 C 235.27 92.70 234.64 93.21 233.93 93.21 Z" fill="#ccccde" fill-opacity="0.39" fill-rule="nonzero" group-id="1,5,16" node-id="736" stroke="none" target-height="3.3740005" target-width="4.679001" target-x="230.866" target-y="89.836"></path><path d="M 234.38 88.01 L 232.92 88.01 C 232.09 88.01 231.42 87.34 231.42 86.51 C 231.42 85.68 232.09 85.01 232.92 85.01 L 234.38 85.01 C 235.21 85.01 235.88 85.68 235.88 86.51 C 235.88 87.34 235.21 88.01 234.38 88.01 Z" fill="#ccccde" fill-opacity="0.39" fill-rule="nonzero" group-id="1,5,16" node-id="738" stroke="none" target-height="3" target-width="4.4600067" target-x="231.42" target-y="85.008"></path><path d="M 232.49 83.06 C 231.77 83.06 231.14 82.55 231.01 81.82 C 230.87 81.00 231.41 80.22 232.23 80.08 L 233.67 79.83 C 234.49 79.69 235.26 80.23 235.40 81.05 C 235.54 81.86 235.00 82.64 234.18 82.78 L 232.75 83.04 C 232.66 83.05 232.57 83.06 232.49 83.06 Z" fill="#ccccde" fill-opacity="0.39" fill-rule="nonzero" group-id="1,5,16" node-id="740" stroke="none" target-height="3.371994" target-width="4.679001" target-x="230.866" target-y="79.688"></path><path d="M 231.20 78.27 C 230.59 78.27 230.02 77.89 229.79 77.28 C 229.51 76.50 229.91 75.64 230.69 75.36 L 232.05 74.86 C 232.83 74.57 233.69 74.97 233.98 75.75 C 234.26 76.53 233.87 77.39 233.09 77.67 L 231.72 78.17 C 231.55 78.24 231.37 78.27 231.20 78.27 Z" fill="#ccccde" fill-opacity="0.39" fill-rule="nonzero" group-id="1,5,16" node-id="742" stroke="none" target-height="3.6959991" target-width="4.755005" target-x="229.509" target-y="74.57"></path><path d="M 229.10 73.76 C 228.58 73.76 228.08 73.49 227.80 73.01 C 227.39 72.29 227.63 71.38 228.35 70.96 L 229.62 70.23 C 230.33 69.82 231.25 70.06 231.67 70.78 C 232.08 71.50 231.83 72.42 231.12 72.83 L 229.85 73.56 C 229.62 73.70 229.36 73.76 229.10 73.76 Z" fill="#ccccde" fill-opacity="0.39" fill-rule="nonzero" group-id="1,5,16" node-id="744" stroke="none" target-height="3.9430008" target-width="4.6909943" target-x="227.389" target-y="69.819"></path><path d="M 226.25 69.69 C 225.83 69.69 225.40 69.51 225.10 69.16 C 224.57 68.52 224.66 67.58 225.29 67.04 L 226.41 66.11 C 227.04 65.57 227.99 65.66 228.52 66.29 C 229.05 66.92 228.97 67.87 228.34 68.40 L 227.22 69.34 C 226.94 69.58 226.59 69.69 226.25 69.69 Z" fill="#ccccde" fill-opacity="0.39" fill-rule="nonzero" group-id="1,5,16" node-id="746" stroke="none" target-height="4.1220016" target-width="4.4809875" target-x="224.572" target-y="65.571"></path><path d="M 222.74 66.18 C 222.40 66.18 222.06 66.07 221.78 65.83 C 221.14 65.30 221.06 64.35 221.59 63.72 L 222.53 62.60 C 223.06 61.97 224.01 61.88 224.65 62.41 C 225.28 62.95 225.36 63.89 224.83 64.53 L 223.89 65.65 C 223.59 66.00 223.17 66.18 222.74 66.18 Z" fill="#ccccde" fill-opacity="0.39" fill-rule="nonzero" group-id="1,5,16" node-id="748" stroke="none" target-height="4.299999" target-width="4.302994" target-x="221.059" target-y="61.883"></path><path d="M 218.67 63.33 C 218.42 63.33 218.16 63.27 217.92 63.13 C 217.20 62.72 216.96 61.80 217.37 61.08 L 218.10 59.82 C 218.52 59.10 219.44 58.86 220.15 59.27 C 220.87 59.68 221.12 60.60 220.70 61.32 L 219.97 62.58 C 219.69 63.06 219.19 63.33 218.67 63.33 Z" fill="#ccccde" fill-opacity="0.39" fill-rule="nonzero" group-id="1,5,16" node-id="750" stroke="none" target-height="4.477001" target-width="4.1569977" target-x="216.959" target-y="58.856"></path><path d="M 214.17 61.23 C 214.00 61.23 213.83 61.21 213.66 61.14 C 212.88 60.86 212.48 60.00 212.76 59.22 L 213.26 57.85 C 213.54 57.07 214.41 56.67 215.18 56.95 C 215.96 57.24 216.36 58.10 216.08 58.88 L 215.58 60.25 C 215.36 60.86 214.78 61.23 214.17 61.23 Z" fill="#ccccde" fill-opacity="0.39" fill-rule="nonzero" group-id="1,5,16" node-id="752" stroke="none" target-height="4.5650024" target-width="3.8849945" target-x="212.479" target-y="56.67"></path><path d="M 209.38 59.95 C 209.29 59.95 209.20 59.94 209.11 59.93 C 208.30 59.78 207.75 59.01 207.90 58.19 L 208.15 56.75 C 208.29 55.94 209.07 55.39 209.89 55.53 C 210.70 55.68 211.25 56.45 211.10 57.27 L 210.85 58.71 C 210.72 59.44 210.09 59.95 209.38 59.95 Z" fill="#ccccde" fill-opacity="0.39" fill-rule="nonzero" group-id="1,5,16" node-id="754" stroke="none" target-height="4.5579987" target-width="3.493988" target-x="207.753" target-y="55.393"></path></g><path d="M 204.43 62.92 C 203.60 62.92 202.93 62.25 202.93 61.42 L 202.93 56.56 C 202.93 55.73 203.60 55.06 204.43 55.06 C 205.25 55.06 205.93 55.73 205.93 56.56 L 205.93 61.42 C 205.93 62.25 205.25 62.92 204.43 62.92 Z" fill="#ccccde" fill-rule="nonzero" group-id="1,5" node-id="757" stroke="none" target-height="7.8650017" target-width="3" target-x="202.926" target-y="55.056"></path><path d="M 174.47 88.01 C 173.65 88.01 172.97 87.34 172.97 86.51 C 172.97 85.68 173.65 85.01 174.47 85.01 L 179.34 85.01 C 179.34 85.01 179.34 85.01 179.34 85.01 C 180.17 85.01 180.84 85.68 180.84 86.51 C 180.84 87.34 180.17 88.01 179.34 88.01 L 174.47 88.01 C 174.47 88.01 174.47 88.01 174.47 88.01 Z" fill="#ccccde" fill-rule="nonzero" group-id="1,5" node-id="759" stroke="none" target-height="3.001999" target-width="7.867996" target-x="172.975" target-y="85.008"></path><path d="M 204.43 117.96 C 203.60 117.96 202.93 117.29 202.93 116.46 L 202.93 111.59 C 202.93 110.77 203.60 110.09 204.43 110.09 C 205.25 110.09 205.93 110.77 205.93 111.59 L 205.93 116.46 C 205.93 117.29 205.26 117.96 204.43 117.96 Z" fill="#ccccde" fill-rule="nonzero" group-id="1,5" node-id="761" stroke="none" target-height="7.866997" target-width="3.001007" target-x="202.926" target-y="110.095"></path><path d="M 234.38 88.01 L 229.51 88.01 C 228.69 88.01 228.01 87.34 228.01 86.51 C 228.01 85.68 228.69 85.01 229.51 85.01 L 234.38 85.01 C 235.21 85.01 235.88 85.68 235.88 86.51 C 235.88 87.34 235.21 88.01 234.38 88.01 Z" fill="#ccccde" fill-rule="nonzero" group-id="1,5" node-id="763" stroke="none" target-height="3" target-width="7.8639984" target-x="228.014" target-y="85.008"></path><path d="M 219.28 102.94 C 218.90 102.94 218.51 102.80 218.22 102.50 L 203.32 87.61 C 203.04 87.33 202.88 86.94 202.88 86.55 C 202.88 86.15 203.04 85.77 203.33 85.48 L 215.01 73.88 C 215.60 73.30 216.55 73.30 217.13 73.89 C 217.72 74.48 217.71 75.43 217.12 76.01 L 206.51 86.55 L 220.34 100.38 C 220.93 100.97 220.93 101.92 220.34 102.50 C 220.05 102.80 219.66 102.94 219.28 102.94 Z" fill="#ccccde" fill-rule="nonzero" group-id="1,5" node-id="765" stroke="none" target-height="29.643997" target-width="18.044998" target-x="202.883" target-y="73.3"></path><path d="M 185.90 97.80 C 185.73 97.80 185.56 97.71 185.47 97.55 C 185.33 97.31 185.41 97.00 185.65 96.86 L 204.13 86.12 C 204.37 85.98 204.68 86.06 204.82 86.30 C 204.96 86.54 204.88 86.84 204.63 86.98 L 186.15 97.73 C 186.07 97.78 185.99 97.80 185.90 97.80 Z" fill="#ccccde" fill-rule="nonzero" group-id="1,5" node-id="767" stroke="none" target-height="11.818001" target-width="19.62799" target-x="185.328" target-y="85.979"></path><path d="M 206.64 86.60 C 206.64 87.86 205.62 88.88 204.36 88.88 C 203.11 88.88 202.09 87.86 202.09 86.60 C 202.09 85.35 203.11 84.33 204.36 84.33 C 205.62 84.33 206.64 85.35 206.64 86.60 Z" fill="#f0f0ff" fill-rule="nonzero" group-id="1,5,17" node-id="771" stroke="none" target-height="4.5459976" target-width="4.5460052" target-x="202.09" target-y="84.329"></path><path d="M 204.36 90.38 C 202.28 90.38 200.59 88.68 200.59 86.60 C 200.59 84.52 202.28 82.83 204.36 82.83 C 206.44 82.83 208.14 84.52 208.14 86.60 C 208.14 88.68 206.44 90.38 204.36 90.38 Z M 204.36 85.83 C 203.94 85.83 203.59 86.18 203.59 86.60 C 203.59 87.03 203.94 87.38 204.36 87.38 C 204.79 87.38 205.14 87.03 205.14 86.60 C 205.14 86.18 204.79 85.83 204.36 85.83 Z" fill="#ccccde" fill-rule="nonzero" group-id="1,5,17" node-id="773" stroke="none" target-height="7.5459976" target-width="7.544998" target-x="200.591" target-y="82.829"></path><path d="M 165.68 92.80 C 163.06 71.24 178.41 51.63 199.98 49.01 C 221.54 46.38 241.16 61.74 243.78 83.30 C 244.13 86.16 244.15 88.97 243.89 91.72 C 244.41 88.22 244.49 84.61 244.04 80.93 C 241.37 58.95 221.39 43.30 199.41 45.98 C 177.43 48.65 161.78 68.63 164.45 90.61 C 165.20 96.75 167.29 102.39 170.41 107.28 C 167.97 102.94 166.32 98.05 165.68 92.80 Z" fill="#ffffff" fill-opacity="0.58" fill-rule="nonzero" group-id="1,5,18" node-id="778" stroke="none" target-height="63.975998" target-width="82.71501" target-x="161.775" target-y="43.305"></path><path d="M 204.34 128.74 C 181.10 128.74 162.19 109.83 162.19 86.60 C 162.19 63.36 181.10 44.45 204.34 44.45 C 227.58 44.45 246.48 63.36 246.48 86.60 C 246.48 109.83 227.58 128.74 204.34 128.74 Z M 204.34 47.45 C 182.76 47.45 165.19 65.01 165.19 86.60 C 165.19 108.18 182.76 125.74 204.34 125.74 C 225.92 125.74 243.48 108.18 243.48 86.60 C 243.48 65.01 225.92 47.45 204.34 47.45 Z" fill="#ccccde" fill-rule="nonzero" group-id="1,5" node-id="781" stroke="none" target-height="84.287994" target-width="84.28899" target-x="162.195" target-y="44.453"></path><path d="M 204.38 122.00 C 184.84 122.00 168.94 106.10 168.94 86.55 C 168.94 67.00 184.84 51.10 204.38 51.10 C 223.93 51.10 239.83 67.00 239.83 86.55 C 239.83 106.10 223.93 122.00 204.38 122.00 Z M 204.38 54.10 C 186.49 54.10 171.94 68.66 171.94 86.55 C 171.94 104.44 186.49 119.00 204.38 119.00 C 222.28 119.00 236.83 104.44 236.83 86.55 C 236.83 68.66 222.28 54.10 204.38 54.10 Z" fill="#ccccde" fill-rule="nonzero" group-id="1,5" node-id="783" stroke="none" target-height="70.897995" target-width="70.897995" target-x="168.935" target-y="51.101"></path><path d="M 240.43 69.97 C 242.33 74.58 243.38 79.63 243.38 84.92 C 243.38 106.64 225.77 124.25 204.04 124.25 C 182.32 124.25 164.71 106.64 164.71 84.92 C 164.71 82.05 165.02 79.25 165.61 76.55 C 164.67 79.96 164.16 83.54 164.16 87.24 C 164.16 109.38 182.11 127.33 204.25 127.33 C 226.39 127.33 244.34 109.38 244.34 87.24 C 244.34 81.06 242.94 75.21 240.43 69.97 Z" fill="#6e6e96" fill-opacity="0.15" fill-rule="nonzero" group-id="1,5,19" node-id="787" stroke="none" target-height="57.356003" target-width="80.17999" target-x="164.156" target-y="69.974"></path><path d="M 226.49 65.19 C 220.85 59.45 213.01 55.89 204.34 55.89 C 187.20 55.89 173.30 69.78 173.30 86.92 C 173.30 92.88 174.99 98.44 177.89 103.17 L 226.49 65.19 Z" fill="#ffffff" fill-opacity="0.54" fill-rule="nonzero" group-id="1,5,20" node-id="792" stroke="none" target-height="47.28" target-width="53.182007" target-x="173.303" target-y="55.886"></path><path d="M 213.34 53.42 C 225.65 57.99 234.44 69.85 234.44 83.76 C 234.44 101.63 219.95 116.12 202.08 116.12 C 185.00 116.12 171.02 102.88 169.82 86.11 C 169.88 104.80 185.05 119.94 203.76 119.94 C 222.51 119.94 237.71 104.74 237.71 85.99 C 237.71 70.57 227.42 57.55 213.34 53.42 Z" fill="#6e6e96" fill-opacity="0.1" fill-rule="nonzero" group-id="1,5,21" node-id="797" stroke="none" target-height="66.521" target-width="67.895004" target-x="169.817" target-y="53.419"></path></g></g><g node-id="1272"><g node-id="1276"><g node-id="1292"><path d="M 79.82 228.28 L 76.50 228.28 C 76.50 228.28 78.00 228.61 79.82 228.28 Z M 130.01 219.10 L 130.01 207.84 L 86.12 207.84 L 86.12 218.66 C 86.12 225.75 82.60 227.79 79.81 228.28 L 86.12 228.28 L 86.12 231.29 L 130.01 231.29 L 130.01 228.28 L 139.64 228.28 C 130.84 228.28 130.07 220.98 130.01 219.10 Z" fill="#ffffff" fill-rule="nonzero" group-id="2,6,22" node-id="806" stroke="none" target-height="23.449005" target-width="63.14" target-x="76.496" target-y="207.838"></path><path d="M 131.51 232.79 L 84.62 232.79 L 84.62 229.78 L 79.97 229.78 C 79.38 229.88 78.77 229.93 78.15 229.93 C 78.15 229.93 78.15 229.93 78.15 229.93 C 77.03 229.93 76.26 229.77 76.18 229.75 L 76.50 226.78 L 79.66 226.78 C 82.95 226.15 84.62 223.42 84.62 218.66 L 84.62 206.34 L 131.51 206.34 L 131.51 219.10 C 131.58 221.38 132.50 226.78 139.62 226.78 L 139.63 228.18 L 139.63 226.78 L 139.63 228.23 L 139.63 226.78 L 139.64 229.78 L 131.51 229.78 L 131.51 232.79 Z M 87.62 229.79 L 128.51 229.79 L 128.51 226.78 L 131.50 226.78 C 129.48 224.72 128.59 221.88 128.51 219.14 L 128.51 209.34 L 87.62 209.34 L 87.62 218.66 C 87.62 222.56 86.62 225.11 85.27 226.78 L 87.62 226.78 L 87.62 229.79 Z" fill="#6e6e96" fill-rule="nonzero" group-id="2,6,22" node-id="808" stroke="none" target-height="26.449997" target-width="63.45999" target-x="76.177" target-y="206.337"></path></g><g node-id="1293"><path d="M 76.50 228.28 L 139.64 228.28 L 139.64 234.30 L 76.50 234.30 Z" fill="#f2f2f2" fill-rule="nonzero" group-id="2,6,23" node-id="813" stroke="none" target-height="6.0149994" target-width="63.142" target-x="76.496" target-y="228.284"></path><path d="M 139.64 235.80 L 76.50 235.80 C 75.67 235.80 75.00 235.13 75.00 234.30 L 75.00 228.28 C 75.00 227.46 75.67 226.78 76.50 226.78 L 139.64 226.78 C 140.47 226.78 141.14 227.46 141.14 228.28 L 141.14 234.30 C 141.14 235.13 140.47 235.80 139.64 235.80 Z M 78.00 232.80 L 138.14 232.80 L 138.14 229.78 L 78.00 229.78 L 78.00 232.80 Z" fill="#6e6e96" fill-rule="nonzero" group-id="2,6,23" node-id="815" stroke="none" target-height="9.014999" target-width="66.142" target-x="74.996" target-y="226.784"></path></g><g node-id="1294"><path d="M 31.09 191.60 L 31.09 94.78 C 31.09 88.17 36.51 82.76 43.12 82.76 L 173.01 82.76 C 179.63 82.76 185.04 88.17 185.04 94.78 L 185.04 191.60" fill="#bbc0d9" fill-rule="nonzero" group-id="2,6,24" node-id="820" stroke="none" target-height="108.846" target-width="153.945" target-x="31.094" target-y="82.758"></path></g><path d="M 39.81 91.79 L 175.44 91.79 L 175.44 174.05 L 39.81 174.05 Z" fill="#a3acd9" fill-rule="nonzero" group-id="2,6" node-id="823" stroke="none" target-height="82.26" target-width="135.621" target-x="39.814" target-y="91.794"></path><path d="M 185.04 181.98 L 185.04 195.81 C 185.04 202.43 179.63 207.84 173.01 207.84 L 43.12 207.84 C 36.50 207.84 31.09 202.42 31.09 195.81 L 31.09 181.98 L 185.04 181.98 Z" fill="#ffffff" fill-rule="nonzero" group-id="2,6,25" node-id="827" stroke="none" target-height="25.85701" target-width="153.946" target-x="31.094" target-y="181.98"></path><path d="M 39.81 91.79 L 175.44 91.79 L 175.44 97.32 L 39.81 97.32 Z" fill="#6e6e96" fill-opacity="0.51" fill-rule="nonzero" group-id="2,6,26" node-id="832" stroke="none" target-height="5.5270004" target-width="135.621" target-x="39.814" target-y="91.794"></path><path d="M 79.29 97.32 L 129.68 97.32 L 129.68 174.05 L 79.29 174.05 Z" fill="#6e6e96" fill-opacity="0.51" fill-rule="nonzero" group-id="2,6,27" node-id="837" stroke="none" target-height="76.733" target-width="50.39" target-x="79.287" target-y="97.321"></path><path d="M 133.06 97.32 L 173.98 97.32 L 173.98 174.05 L 133.06 174.05 Z" fill="#6e6e96" fill-opacity="0.51" fill-rule="nonzero" group-id="2,6,28" node-id="842" stroke="none" target-height="76.733" target-width="40.92" target-x="133.06" target-y="97.321"></path><path d="M 77.93 169.86 L 173.98 169.86 L 173.98 173.58 L 77.93 173.58 Z" fill="#a3acd9" fill-rule="nonzero" group-id="2,6" node-id="845" stroke="none" target-height="3.7180023" target-width="96.046" target-x="77.934" target-y="169.864"></path><path d="M 72.86 150.08 L 133.06 150.08 L 133.06 153.80 L 72.86 153.80 Z" fill="#a3acd9" fill-rule="nonzero" group-id="2,6" node-id="847" stroke="none" target-height="3.723999" target-width="60.197998" target-x="72.862" target-y="150.077"></path><path d="M 79.29 102.23 L 129.68 102.23 L 129.68 103.23 L 79.29 103.23 Z" fill="#a3acd9" fill-rule="nonzero" group-id="2,6" node-id="849" stroke="none" target-height="1" target-width="50.39" target-x="79.287" target-y="102.23"></path><path d="M 78.27 97.32 L 92.64 97.32 L 92.64 102.73 L 78.27 102.73 Z" fill="#a3acd9" fill-rule="nonzero" group-id="2,6" node-id="851" stroke="none" target-height="5.411003" target-width="14.371994" target-x="78.273" target-y="97.321"></path><path d="M 133.06 97.32 L 173.98 97.32 L 173.98 102.73 L 133.06 102.73 Z" fill="#a3acd9" fill-rule="nonzero" group-id="2,6" node-id="853" stroke="none" target-height="5.411003" target-width="40.92" target-x="133.06" target-y="97.321"></path><path d="M 48.17 103.25 L 67.45 103.25 L 67.45 104.25 L 48.17 104.25 Z" fill="#ccccde" fill-rule="nonzero" group-id="2,6" node-id="855" stroke="none" target-height="1" target-width="19.276997" target-x="48.173" target-y="103.246"></path><path d="M 53.08 108.15 L 73.20 108.15 L 73.20 109.15 L 53.08 109.15 Z" fill="#ccccde" fill-rule="nonzero" group-id="2,6" node-id="857" stroke="none" target-height="1" target-width="20.123997" target-x="53.076" target-y="108.15"></path><path d="M 53.08 113.39 L 68.38 113.39 L 68.38 114.39 L 53.08 114.39 Z" fill="#ccccde" fill-rule="nonzero" group-id="2,6" node-id="859" stroke="none" target-height="1" target-width="15.3049965" target-x="53.076" target-y="113.392"></path><path d="M 172.50 81.59 L 42.61 81.59 C 36.00 81.59 30.59 87.01 30.59 93.62 L 30.59 98.69 C 30.59 92.08 36.00 86.67 42.61 86.67 L 172.51 86.67 C 179.12 86.67 184.53 92.08 184.53 98.69 L 184.53 93.62 C 184.53 87.01 179.12 81.59 172.50 81.59 Z" fill="#d5dbf7" fill-rule="nonzero" group-id="2,6" node-id="861" stroke="none" target-height="17.099998" target-width="153.945" target-x="30.588" target-y="81.594"></path><path d="M 53.08 118.80 L 59.81 118.80 L 59.81 119.80 L 53.08 119.80 Z" fill="#ccccde" fill-rule="nonzero" group-id="2,6" node-id="863" stroke="none" target-height="1" target-width="6.7369995" target-x="53.076" target-y="118.803"></path><path d="M 89.52 107.22 L 96.11 107.22 L 96.11 108.22 L 89.52 108.22 Z" fill="#ccccde" fill-rule="nonzero" group-id="2,6,29" node-id="867" stroke="none" target-height="1" target-width="6.594002" target-x="89.517" target-y="107.221"></path><path d="M 100.93 107.22 L 112.35 107.22 L 112.35 108.22 L 100.93 108.22 Z" fill="#ffff9c" fill-rule="nonzero" group-id="2,6,29" node-id="869" stroke="none" target-height="1" target-width="11.415001" target-x="100.931" target-y="107.221"></path><path d="M 89.52 110.26 L 102.20 110.26 L 102.20 111.26 L 89.52 111.26 Z" fill="#ccccde" fill-rule="nonzero" group-id="2,6,29" node-id="871" stroke="none" target-height="1" target-width="12.682999" target-x="89.517" target-y="110.264"></path><path d="M 106.26 110.26 L 111.84 110.26 L 111.84 111.26 L 106.26 111.26 Z" fill="#ffff9c" fill-rule="nonzero" group-id="2,6,29" node-id="873" stroke="none" target-height="1" target-width="5.579994" target-x="106.258" target-y="110.264"></path><path d="M 89.52 113.81 L 97.38 113.81 L 97.38 114.81 L 89.52 114.81 Z" fill="#ccccde" fill-rule="nonzero" group-id="2,6,29" node-id="875" stroke="none" target-height="1" target-width="7.862999" target-x="89.517" target-y="113.815"></path><path d="M 101.69 113.81 L 104.74 113.81 L 104.74 114.81 L 101.69 114.81 Z" fill="#ffff9c" fill-rule="nonzero" group-id="2,6,29" node-id="877" stroke="none" target-height="1" target-width="3.0449982" target-x="101.691" target-y="113.815"></path><path d="M 89.52 117.11 L 99.66 117.11 L 99.66 118.11 L 89.52 118.11 Z" fill="#ccccde" fill-rule="nonzero" group-id="2,6,29" node-id="879" stroke="none" target-height="1" target-width="10.146004" target-x="89.517" target-y="117.112"></path><path d="M 95.10 120.16 L 104.99 120.16 L 104.99 121.16 L 95.10 121.16 Z" fill="#ccccde" fill-rule="nonzero" group-id="2,6,29" node-id="881" stroke="none" target-height="1" target-width="9.892998" target-x="95.098" target-y="120.155"></path><path d="M 109.05 120.16 L 112.35 120.16 L 112.35 121.16 L 109.05 121.16 Z" fill="#ffff9c" fill-rule="nonzero" group-id="2,6,29" node-id="883" stroke="none" target-height="1" target-width="3.2990036" target-x="109.047" target-y="120.155"></path><path d="M 113.86 120.16 L 126.80 120.16 L 126.80 121.16 L 113.86 121.16 Z" fill="#ffff9c" fill-rule="nonzero" group-id="2,6,29" node-id="885" stroke="none" target-height="1" target-width="12.938004" target-x="113.865" target-y="120.155"></path><path d="M 89.52 123.96 L 91.80 123.96 L 91.80 124.96 L 89.52 124.96 Z" fill="#ccccde" fill-rule="nonzero" group-id="2,6,29" node-id="887" stroke="none" target-height="1" target-width="2.2830048" target-x="89.517" target-y="123.96"></path><path d="M 89.52 127.26 L 95.48 127.26 L 95.48 128.26 L 89.52 128.26 Z" fill="#ccccde" fill-rule="nonzero" group-id="2,6,29" node-id="889" stroke="none" target-height="1" target-width="5.959999" target-x="89.517" target-y="127.259"></path><path d="M 89.52 130.56 L 98.46 130.56 L 98.46 131.56 L 89.52 131.56 Z" fill="#ccccde" fill-rule="nonzero" group-id="2,6,29" node-id="891" stroke="none" target-height="1" target-width="8.942001" target-x="89.517" target-y="130.557"></path><path d="M 103.47 130.56 L 106.26 130.56 L 106.26 131.56 L 103.47 131.56 Z" fill="#ffff9c" fill-rule="nonzero" group-id="2,6,29" node-id="893" stroke="none" target-height="1" target-width="2.7910004" target-x="103.467" target-y="130.557"></path><path d="M 89.52 134.61 L 100.17 134.61 L 100.17 135.61 L 89.52 135.61 Z" fill="#ccccde" fill-rule="nonzero" group-id="2,6,29" node-id="895" stroke="none" target-height="1" target-width="10.652" target-x="89.517" target-y="134.614"></path><path d="M 93.07 137.91 L 101.44 137.91 L 101.44 138.91 L 93.07 138.91 Z" fill="#ccccde" fill-rule="nonzero" group-id="2,6,29" node-id="897" stroke="none" target-height="1" target-width="8.370003" target-x="93.068" target-y="137.911"></path><path d="M 103.47 137.91 L 106.77 137.91 L 106.77 138.91 L 103.47 138.91 Z" fill="#ccccde" fill-rule="nonzero" group-id="2,6,29" node-id="899" stroke="none" target-height="1" target-width="3.2979965" target-x="103.467" target-y="137.911"></path><path d="M 110.32 137.91 L 113.36 137.91 L 113.36 138.91 L 110.32 138.91 Z" fill="#ffff9c" fill-rule="nonzero" group-id="2,6,29" node-id="901" stroke="none" target-height="1" target-width="3.0439987" target-x="110.316" target-y="137.911"></path><path d="M 93.07 141.72 L 105.50 141.72 L 105.50 142.72 L 93.07 142.72 Z" fill="#ccccde" fill-rule="nonzero" group-id="2,6,29" node-id="903" stroke="none" target-height="1" target-width="12.428001" target-x="93.068" target-y="141.716"></path><path d="M 110.32 141.72 L 112.35 141.72 L 112.35 142.72 L 110.32 142.72 Z" fill="#ffff9c" fill-rule="nonzero" group-id="2,6,29" node-id="905" stroke="none" target-height="1" target-width="2.0299988" target-x="110.316" target-y="141.716"></path><path d="M 89.52 145.27 L 92.05 145.27 L 92.05 146.27 L 89.52 146.27 Z" fill="#ccccde" fill-rule="nonzero" group-id="2,6,29" node-id="907" stroke="none" target-height="1" target-width="2.5370026" target-x="89.517" target-y="145.268"></path><path d="M 82.92 110.26 L 83.68 110.26 L 83.68 111.26 L 82.92 111.26 Z" fill="#ccccde" fill-rule="nonzero" group-id="2,6,30" node-id="912" stroke="none" target-height="1" target-width="0.7630005" target-x="82.921" target-y="110.264"></path><path d="M 82.92 113.81 L 83.68 113.81 L 83.68 114.81 L 82.92 114.81 Z" fill="#ccccde" fill-rule="nonzero" group-id="2,6,30" node-id="914" stroke="none" target-height="1" target-width="0.7630005" target-x="82.921" target-y="113.815"></path><path d="M 82.92 116.98 L 83.68 116.98 L 83.68 117.98 L 82.92 117.98 Z" fill="#ccccde" fill-rule="nonzero" group-id="2,6,30" node-id="916" stroke="none" target-height="1" target-width="0.7630005" target-x="82.921" target-y="116.985"></path><path d="M 82.92 120.07 L 83.68 120.07 L 83.68 121.07 L 82.92 121.07 Z" fill="#ccccde" fill-rule="nonzero" group-id="2,6,30" node-id="918" stroke="none" target-height="1" target-width="0.7630005" target-x="82.921" target-y="120.072"></path><path d="M 82.92 123.96 L 83.68 123.96 L 83.68 124.96 L 82.92 124.96 Z" fill="#ccccde" fill-rule="nonzero" group-id="2,6,30" node-id="920" stroke="none" target-height="1" target-width="0.7630005" target-x="82.921" target-y="123.96"></path><path d="M 82.92 127.26 L 83.68 127.26 L 83.68 128.26 L 82.92 128.26 Z" fill="#ccccde" fill-rule="nonzero" group-id="2,6,30" node-id="922" stroke="none" target-height="1" target-width="0.7630005" target-x="82.921" target-y="127.259"></path><path d="M 82.92 130.56 L 83.68 130.56 L 83.68 131.56 L 82.92 131.56 Z" fill="#ccccde" fill-rule="nonzero" group-id="2,6,30" node-id="924" stroke="none" target-height="1" target-width="0.7630005" target-x="82.921" target-y="130.557"></path><path d="M 83.01 134.61 L 83.68 134.61 L 83.68 135.61 L 83.01 135.61 Z" fill="#ccccde" fill-rule="nonzero" group-id="2,6,30" node-id="926" stroke="none" target-height="1" target-width="0.6759949" target-x="83.008" target-y="134.614"></path><path d="M 83.01 137.91 L 83.68 137.91 L 83.68 138.91 L 83.01 138.91 Z" fill="#ccccde" fill-rule="nonzero" group-id="2,6,30" node-id="928" stroke="none" target-height="1" target-width="0.6759949" target-x="83.008" target-y="137.911"></path><path d="M 83.01 141.72 L 83.68 141.72 L 83.68 142.72 L 83.01 142.72 Z" fill="#ccccde" fill-rule="nonzero" group-id="2,6,30" node-id="930" stroke="none" target-height="1" target-width="0.6759949" target-x="83.008" target-y="141.716"></path><path d="M 83.01 145.27 L 83.68 145.27 L 83.68 146.27 L 83.01 146.27 Z" fill="#ccccde" fill-rule="nonzero" group-id="2,6,30" node-id="932" stroke="none" target-height="1" target-width="0.6759949" target-x="83.008" target-y="145.268"></path><path d="M 82.92 107.22 L 83.68 107.22 L 83.68 108.22 L 82.92 108.22 Z" fill="#ccccde" fill-rule="nonzero" group-id="2,6,30" node-id="934" stroke="none" target-height="1" target-width="0.7630005" target-x="82.921" target-y="107.221"></path><path d="M 86.60 105.78 L 86.85 105.78 L 86.85 150.08 L 86.60 150.08 Z" fill="#5feaff" fill-rule="nonzero" group-id="2,6" node-id="937" stroke="none" target-height="44.301994" target-width="0.25" target-x="86.603" target-y="105.775"></path><path d="M 135.85 106.80 L 142.21 106.80 L 142.21 107.80 L 135.85 107.80 Z" fill="#a1ffd2" fill-rule="nonzero" group-id="2,6,31" node-id="941" stroke="none" target-height="1" target-width="6.356003" target-x="135.849" target-y="106.797"></path><path d="M 146.85 106.80 L 157.85 106.80 L 157.85 107.80 L 146.85 107.80 Z" fill="#ccccde" fill-rule="nonzero" group-id="2,6,31" node-id="943" stroke="none" target-height="1" target-width="10.998001" target-x="146.851" target-y="106.797"></path><path d="M 135.85 109.84 L 148.07 109.84 L 148.07 110.84 L 135.85 110.84 Z" fill="#fcbaff" fill-rule="nonzero" group-id="2,6,31" node-id="945" stroke="none" target-height="1" target-width="12.225006" target-x="135.849" target-y="109.84"></path><path d="M 151.98 109.84 L 157.36 109.84 L 157.36 110.84 L 151.98 110.84 Z" fill="#ccccde" fill-rule="nonzero" group-id="2,6,31" node-id="947" stroke="none" target-height="1" target-width="5.376999" target-x="151.984" target-y="109.84"></path><path d="M 135.85 113.39 L 143.43 113.39 L 143.43 114.39 L 135.85 114.39 Z" fill="#ccccde" fill-rule="nonzero" group-id="2,6,31" node-id="949" stroke="none" target-height="1" target-width="7.578003" target-x="135.849" target-y="113.392"></path><path d="M 147.58 113.39 L 150.52 113.39 L 150.52 114.39 L 147.58 114.39 Z" fill="#fcbaff" fill-rule="nonzero" group-id="2,6,31" node-id="951" stroke="none" target-height="1" target-width="2.9320068" target-x="147.584" target-y="113.392"></path><path d="M 135.85 116.69 L 145.63 116.69 L 145.63 117.69 L 135.85 117.69 Z" fill="#ccccde" fill-rule="nonzero" group-id="2,6,31" node-id="953" stroke="none" target-height="1" target-width="9.779007" target-x="135.849" target-y="116.689"></path><path d="M 141.23 119.73 L 150.76 119.73 L 150.76 120.73 L 141.23 120.73 Z" fill="#ccccde" fill-rule="nonzero" group-id="2,6,31" node-id="955" stroke="none" target-height="1" target-width="9.5329895" target-x="141.229" target-y="119.732"></path><path d="M 154.67 119.73 L 157.85 119.73 L 157.85 120.73 L 154.67 120.73 Z" fill="#fcbaff" fill-rule="nonzero" group-id="2,6,31" node-id="957" stroke="none" target-height="1" target-width="3.177002" target-x="154.672" target-y="119.732"></path><path d="M 159.32 119.73 L 171.78 119.73 L 171.78 120.73 L 159.32 120.73 Z" fill="#ccccde" fill-rule="nonzero" group-id="2,6,31" node-id="959" stroke="none" target-height="1" target-width="12.465012" target-x="159.318" target-y="119.732"></path><path d="M 135.85 123.54 L 138.05 123.54 L 138.05 124.54 L 135.85 124.54 Z" fill="#ccccde" fill-rule="nonzero" group-id="2,6,31" node-id="961" stroke="none" target-height="1" target-width="2.1990051" target-x="135.849" target-y="123.537"></path><path d="M 135.85 126.83 L 141.59 126.83 L 141.59 127.83 L 135.85 127.83 Z" fill="#ccccde" fill-rule="nonzero" group-id="2,6,31" node-id="963" stroke="none" target-height="1" target-width="5.746002" target-x="135.849" target-y="126.835"></path><path d="M 135.85 130.13 L 144.47 130.13 L 144.47 131.13 L 135.85 131.13 Z" fill="#ccccde" fill-rule="nonzero" group-id="2,6,31" node-id="965" stroke="none" target-height="1" target-width="8.617004" target-x="135.849" target-y="130.132"></path><path d="M 149.29 130.13 L 151.98 130.13 L 151.98 131.13 L 149.29 131.13 Z" fill="#ccccde" fill-rule="nonzero" group-id="2,6,31" node-id="967" stroke="none" target-height="1" target-width="2.6900024" target-x="149.293" target-y="130.132"></path><path d="M 135.85 134.19 L 146.12 134.19 L 146.12 135.19 L 135.85 135.19 Z" fill="#a1ffd2" fill-rule="nonzero" group-id="2,6,31" node-id="969" stroke="none" target-height="1" target-width="10.268005" target-x="135.849" target-y="134.188"></path><path d="M 139.27 137.49 L 147.34 137.49 L 147.34 138.49 L 139.27 138.49 Z" fill="#ccccde" fill-rule="nonzero" group-id="2,6,31" node-id="971" stroke="none" target-height="1" target-width="8.070007" target-x="139.271" target-y="137.487"></path><path d="M 149.29 137.49 L 152.47 137.49 L 152.47 138.49 L 149.29 138.49 Z" fill="#ccccde" fill-rule="nonzero" group-id="2,6,31" node-id="973" stroke="none" target-height="1" target-width="3.1809998" target-x="149.293" target-y="137.487"></path><path d="M 155.89 137.49 L 158.83 137.49 L 158.83 138.49 L 155.89 138.49 Z" fill="#ccccde" fill-rule="nonzero" group-id="2,6,31" node-id="975" stroke="none" target-height="1" target-width="2.9349976" target-x="155.894" target-y="137.487"></path><path d="M 139.27 141.29 L 151.25 141.29 L 151.25 142.29 L 139.27 142.29 Z" fill="#fcbaff" fill-rule="nonzero" group-id="2,6,31" node-id="977" stroke="none" target-height="1" target-width="11.980011" target-x="139.271" target-y="141.29"></path><path d="M 155.89 141.29 L 157.85 141.29 L 157.85 142.29 L 155.89 142.29 Z" fill="#ccccde" fill-rule="nonzero" group-id="2,6,31" node-id="979" stroke="none" target-height="1" target-width="1.9550018" target-x="155.894" target-y="141.29"></path><path d="M 135.85 144.84 L 138.29 144.84 L 138.29 145.84 L 135.85 145.84 Z" fill="#ccccde" fill-rule="nonzero" group-id="2,6,31" node-id="981" stroke="none" target-height="1" target-width="2.4450073" target-x="135.849" target-y="144.844"></path><path d="M 46.23 97.32 L 46.73 97.32 L 46.73 174.05 L 46.23 174.05 Z" fill="#6e6e96" fill-rule="nonzero" group-id="2,6" node-id="984" stroke="none" target-height="76.731995" target-width="0.5" target-x="46.233" target-y="97.321"></path><path d="M 173.01 209.34 L 43.12 209.34 C 35.66 209.34 29.59 203.27 29.59 195.81 L 29.59 180.48 L 186.54 180.48 L 186.54 195.81 C 186.54 203.27 180.47 209.34 173.01 209.34 Z M 32.59 183.48 L 32.59 195.81 C 32.59 201.62 37.32 206.34 43.12 206.34 L 173.01 206.34 C 178.82 206.34 183.54 201.61 183.54 195.81 L 183.54 183.48 L 32.59 183.48 Z" fill="#6e6e96" fill-rule="nonzero" group-id="2,6,32" node-id="988" stroke="none" target-height="28.856995" target-width="156.946" target-x="29.594" target-y="180.481"></path><path d="M 186.54 191.60 L 183.54 191.60 L 183.54 94.78 C 183.54 88.98 178.82 84.26 173.01 84.26 L 43.12 84.26 C 37.32 84.26 32.59 88.98 32.59 94.78 L 32.59 191.60 L 29.59 191.60 L 29.59 94.78 C 29.59 87.33 35.66 81.26 43.12 81.26 L 173.01 81.26 C 180.47 81.26 186.54 87.33 186.54 94.78 L 186.54 191.60 Z" fill="#6e6e96" fill-rule="nonzero" group-id="2,6,33" node-id="993" stroke="none" target-height="110.346" target-width="156.945" target-x="29.594" target-y="81.258"></path><path d="M 173.01 202.01 L 43.12 202.01 C 36.50 202.01 31.09 196.59 31.09 189.98 L 31.09 195.81 C 31.09 202.43 36.51 207.84 43.12 207.84 L 173.01 207.84 C 179.63 207.84 185.04 202.43 185.04 195.81 L 185.04 189.98 C 185.04 196.59 179.63 202.01 173.01 202.01 Z" fill="#6e6e96" fill-opacity="0.15" fill-rule="nonzero" group-id="2,6,34" node-id="998" stroke="none" target-height="17.86" target-width="153.946" target-x="31.094" target-y="189.979"></path><path d="M 31.09 177.16 L 185.04 177.16 L 185.04 181.98 L 31.09 181.98 Z" fill="#6e6e96" fill-opacity="0.15" fill-rule="nonzero" group-id="2,6,35" node-id="1003" stroke="none" target-height="4.8159943" target-width="153.946" target-x="31.094" target-y="177.164"></path><path d="M 86.12 207.84 L 130.01 207.84 L 130.01 215.52 L 86.12 215.52 Z" fill="#6e6e96" fill-opacity="0.15" fill-rule="nonzero" group-id="2,6,36" node-id="1008" stroke="none" target-height="7.677002" target-width="43.89601" target-x="86.118" target-y="207.839"></path><path d="M 121.73 228.28 L 139.64 228.28 L 139.64 234.30 L 121.73 234.30 Z" fill="#6e6e96" fill-opacity="0.15" fill-rule="nonzero" group-id="2,6,37" node-id="1013" stroke="none" target-height="6.0149994" target-width="17.90699" target-x="121.73" target-y="228.284"></path><path d="M 112.60 195.71 L 102.45 195.71 C 101.62 195.71 100.95 195.04 100.95 194.21 C 100.95 193.38 101.62 192.71 102.45 192.71 L 112.60 192.71 C 113.43 192.71 114.10 193.38 114.10 194.21 C 114.10 195.04 113.43 195.71 112.60 195.71 Z" fill="#6e6e96" fill-rule="nonzero" group-id="2,6" node-id="1016" stroke="none" target-height="3" target-width="13.145996" target-x="100.952" target-y="192.713"></path><path d="M 39.81 125.22 L 67.72 97.32 L 109.56 97.32 L 40.44 166.43 Z" fill="#ffffff" fill-opacity="0.17" fill-rule="nonzero" group-id="2,6,38" node-id="1020" stroke="none" target-height="69.11301" target-width="69.741" target-x="39.814" target-y="97.321"></path><path d="M 129.68 97.32 L 52.59 174.41 L 64.41 174.41 L 141.50 97.32 Z" fill="#ffffff" fill-opacity="0.2" fill-rule="nonzero" group-id="2,6,39" node-id="1025" stroke="none" target-height="77.09" target-width="88.905" target-x="52.591" target-y="97.321"></path><path d="M 175.44 175.55 L 39.81 175.55 C 38.98 175.55 38.31 174.88 38.31 174.05 L 38.31 91.79 C 38.31 90.97 38.98 90.29 39.81 90.29 L 175.44 90.29 C 176.26 90.29 176.94 90.97 176.94 91.79 L 176.94 174.05 C 176.94 174.88 176.26 175.55 175.44 175.55 Z M 41.31 172.55 L 173.94 172.55 L 173.94 93.29 L 41.31 93.29 L 41.31 172.55 Z" fill="#6e6e96" fill-rule="nonzero" group-id="2,6" node-id="1028" stroke="none" target-height="85.26" target-width="138.621" target-x="38.314" target-y="90.294"></path></g><g node-id="1277"><g node-id="1310"><path d="M 243.15 221.82 C 243.15 225.84 239.86 229.13 235.84 229.13 L 129.47 229.13 C 125.46 229.13 122.17 225.84 122.17 221.82 L 122.17 146.92 C 122.17 140.46 125.46 139.61 129.47 139.61 L 235.84 139.61 C 239.86 139.61 243.15 140.46 243.15 146.92 L 243.15 221.82 L 243.15 221.82 Z" fill="#bbc0d9" fill-rule="nonzero" group-id="2,7,40" node-id="1035" stroke="none" target-height="89.517" target-width="120.976" target-x="122.17" target-y="139.613"></path></g><path d="M 132.87 149.17 L 233.24 149.17 L 233.24 214.67 L 132.87 214.67 Z" fill="#b3dae3" fill-rule="nonzero" group-id="2,7" node-id="1038" stroke="none" target-height="65.50099" target-width="100.373" target-x="132.868" target-y="149.167"></path><path d="M 132.87 149.17 L 233.24 149.17 L 233.24 155.30 L 132.87 155.30 Z" fill="#ffffff" fill-opacity="0.69" fill-rule="nonzero" group-id="2,7,41" node-id="1042" stroke="none" target-height="6.1369934" target-width="100.373" target-x="132.868" target-y="149.167"></path><path d="M 132.87 155.27 L 233.24 155.27 L 233.24 169.81 L 132.87 169.81 Z" fill="#015353" fill-opacity="0.23" fill-rule="nonzero" group-id="2,7,42" node-id="1047" stroke="none" target-height="14.544998" target-width="100.373" target-x="132.868" target-y="155.27"></path><path d="M 146.24 191.31 L 160.78 191.31 L 160.78 204.94 L 146.24 204.94 Z" fill="#003cff" fill-opacity="0.23" fill-rule="nonzero" group-id="2,7,43" node-id="1052" stroke="none" target-height="13.633011" target-width="14.544998" target-x="146.235" target-y="191.305"></path><path d="M 166.19 191.31 L 180.74 191.31 L 180.74 204.94 L 166.19 204.94 Z" fill="#ffbf00" fill-opacity="0.23" fill-rule="nonzero" group-id="2,7,44" node-id="1057" stroke="none" target-height="13.633011" target-width="14.546997" target-x="166.194" target-y="191.305"></path><path d="M 206.45 191.31 L 220.99 191.31 L 220.99 204.94 L 206.45 204.94 Z" fill="#ffffff" fill-opacity="0.52" fill-rule="nonzero" group-id="2,7,45" node-id="1062" stroke="none" target-height="13.633011" target-width="14.546005" target-x="206.448" target-y="191.305"></path><path d="M 148.88 208.53 L 158.13 208.53 L 158.13 209.53 L 148.88 209.53 Z" fill="#000000" fill-opacity="0.3" fill-rule="nonzero" group-id="2,7,46" node-id="1067" stroke="none" target-height="1" target-width="9.244003" target-x="148.885" target-y="208.531"></path><path d="M 168.84 208.53 L 178.09 208.53 L 178.09 209.53 L 168.84 209.53 Z" fill="#000000" fill-opacity="0.3" fill-rule="nonzero" group-id="2,7,47" node-id="1072" stroke="none" target-height="1" target-width="9.248001" target-x="168.842" target-y="208.531"></path><path d="M 186.49 191.31 L 201.03 191.31 L 201.03 204.94 L 186.49 204.94 Z" fill="#00a33d" fill-opacity="0.23" fill-rule="nonzero" group-id="2,7,48,78" node-id="1079" stroke="none" target-height="13.633011" target-width="14.544998" target-x="186.49" target-y="191.305"></path><path d="M 189.14 208.53 L 198.38 208.53 L 198.38 209.53 L 189.14 209.53 Z" fill="#000000" fill-opacity="0.3" fill-rule="nonzero" group-id="2,7,48,79" node-id="1084" stroke="none" target-height="1" target-width="9.243988" target-x="189.141" target-y="208.531"></path><path d="M 209.10 208.53 L 218.34 208.53 L 218.34 209.53 L 209.10 209.53 Z" fill="#000000" fill-opacity="0.3" fill-rule="nonzero" group-id="2,7,49" node-id="1090" stroke="none" target-height="1" target-width="9.244003" target-x="209.099" target-y="208.531"></path><path d="M 123.08 220.29 L 241.76 220.29 L 241.76 227.70 L 123.08 227.70 Z" fill="#6e6e96" fill-opacity="0.15" fill-rule="nonzero" group-id="2,7,50" node-id="1095" stroke="none" target-height="7.4170074" target-width="118.67899" target-x="123.083" target-y="220.286"></path><path d="M 175.08 176.03 L 191.66 176.03 L 191.66 179.03 L 175.08 179.03 Z" fill="#3f3f3f" fill-rule="nonzero" group-id="2,7" node-id="1098" stroke="none" target-height="3" target-width="16.574997" target-x="175.084" target-y="176.029"></path><path d="M 132.87 155.30 L 233.24 155.30 L 233.24 157.00 L 132.87 157.00 Z" fill="#015353" fill-opacity="0.14" fill-rule="nonzero" group-id="2,7,51" node-id="1102" stroke="none" target-height="1.6920013" target-width="100.373" target-x="132.868" target-y="155.304"></path><path d="M 235.39 139.39 L 129.02 139.39 C 125.00 139.39 121.71 140.24 121.71 146.70 L 121.71 150.80 C 121.71 144.35 125.00 143.50 129.02 143.50 L 235.39 143.50 C 239.40 143.50 242.69 144.35 242.69 150.80 L 242.69 146.70 C 242.69 140.24 239.40 139.39 235.39 139.39 Z" fill="#ffffff" fill-opacity="0.42" fill-rule="nonzero" group-id="2,7,52" node-id="1107" stroke="none" target-height="11.411987" target-width="120.977" target-x="121.714" target-y="139.391"></path><path d="M 171.70 181.74 L 195.38 181.74 L 195.38 183.74 L 171.70 183.74 Z" fill="#000000" fill-opacity="0.18" fill-rule="nonzero" group-id="2,7,53" node-id="1112" stroke="none" target-height="2" target-width="23.681" target-x="171.7" target-y="181.738"></path><path d="M 234.93 230.63 L 130.39 230.63 C 125.53 230.63 121.58 226.68 121.58 221.82 L 121.58 146.92 C 121.58 139.16 126.03 138.11 130.39 138.11 L 234.93 138.11 C 239.28 138.11 243.73 139.16 243.73 146.92 L 243.73 221.82 C 243.73 226.68 239.78 230.63 234.93 230.63 Z M 130.39 141.11 C 126.37 141.11 124.58 141.95 124.58 146.92 L 124.58 221.82 C 124.58 225.03 127.19 227.63 130.39 227.63 L 234.93 227.63 C 238.13 227.63 240.73 225.03 240.73 221.82 L 240.73 146.92 C 240.73 141.95 238.94 141.11 234.93 141.11 L 130.39 141.11 Z" fill="#6e6e96" fill-rule="nonzero" group-id="2,7,54" node-id="1117" stroke="none" target-height="92.517" target-width="122.15099" target-x="121.583" target-y="138.113"></path><path d="M 252.63 224.43 L 194.15 224.43 L 194.15 226.94 L 174.05 226.94 L 174.05 224.43 L 114.87 224.43 C 114.87 225.07 114.97 225.69 115.17 226.26 L 114.87 226.26 C 114.87 229.45 115.04 234.80 120.66 234.80 L 246.83 234.80 C 252.46 234.80 252.63 229.45 252.63 226.26 L 252.33 226.26 C 252.52 225.69 252.63 225.07 252.63 224.43 Z" fill="#ffffff" fill-rule="nonzero" group-id="2,7,55" node-id="1122" stroke="none" target-height="10.363998" target-width="137.76501" target-x="114.867" target-y="224.434"></path><path d="M 245.92 236.30 L 119.75 236.30 C 112.45 236.30 112.45 229.00 112.45 226.26 C 112.45 226.06 112.49 225.87 112.56 225.69 C 112.49 225.28 112.45 224.86 112.45 224.43 C 112.45 223.61 113.12 222.93 113.95 222.93 L 173.14 222.93 C 173.97 222.93 174.64 223.61 174.64 224.43 L 174.64 225.44 L 191.74 225.44 L 191.74 224.43 C 191.74 223.61 192.41 222.93 193.24 222.93 L 251.72 222.93 C 252.55 222.93 253.22 223.61 253.22 224.43 C 253.22 224.85 253.18 225.27 253.11 225.69 C 253.18 225.87 253.22 226.06 253.22 226.26 C 253.22 229.00 253.22 236.30 245.92 236.30 Z M 115.46 227.15 C 115.57 230.97 116.42 233.30 119.75 233.30 L 245.92 233.30 C 249.25 233.30 250.10 230.97 250.21 227.15 C 250.21 227.14 250.20 227.14 250.20 227.13 C 249.95 226.79 249.86 226.35 249.95 225.93 L 194.74 225.93 L 194.74 226.94 C 194.74 227.77 194.06 228.44 193.24 228.44 L 173.14 228.44 C 172.31 228.44 171.64 227.77 171.64 226.94 L 171.64 225.93 L 115.72 225.93 C 115.81 226.35 115.72 226.79 115.47 227.13 C 115.47 227.14 115.47 227.14 115.46 227.15 Z" fill="#6e6e96" fill-rule="nonzero" group-id="2,7,56" node-id="1127" stroke="none" target-height="13.363998" target-width="140.767" target-x="112.452" target-y="222.934"></path><path d="M 134.28 172.35 L 152.93 150.05 L 186.36 150.05 L 134.78 205.28 Z" fill="#ffffff" fill-opacity="0.17" fill-rule="nonzero" group-id="2,7,57" node-id="1132" stroke="none" target-height="55.231003" target-width="52.082" target-x="134.281" target-y="150.051"></path><path d="M 202.44 150.05 L 140.84 211.66 L 150.28 211.66 L 211.89 150.05 Z" fill="#ffffff" fill-opacity="0.2" fill-rule="nonzero" group-id="2,7,58" node-id="1137" stroke="none" target-height="61.60501" target-width="71.05" target-x="140.838" target-y="150.051"></path><path d="M 233.24 216.17 L 132.87 216.17 C 132.04 216.17 131.37 215.50 131.37 214.67 L 131.37 149.17 C 131.37 148.34 132.04 147.67 132.87 147.67 L 233.24 147.67 C 234.07 147.67 234.74 148.34 234.74 149.17 L 234.74 214.67 C 234.74 215.50 234.07 216.17 233.24 216.17 Z M 134.37 213.17 L 231.74 213.17 L 231.74 150.67 L 134.37 150.67 L 134.37 213.17 Z" fill="#6e6e96" fill-rule="nonzero" group-id="2,7" node-id="1140" stroke="none" target-height="68.50099" target-width="103.373" target-x="131.368" target-y="147.667"></path><path d="M 114.09 224.33 L 114.06 224.33 C 114.06 224.68 114.10 225.03 114.16 225.36 C 114.12 225.01 114.10 224.67 114.09 224.33 Z M 246.02 231.37 L 119.85 231.37 C 115.95 231.37 114.68 228.80 114.26 226.16 L 114.06 226.16 C 114.06 229.34 114.23 234.69 119.85 234.69 L 246.02 234.69 C 251.65 234.69 251.82 229.35 251.82 226.16 L 251.62 226.16 C 251.20 228.80 249.93 231.37 246.02 231.37 Z M 251.79 224.33 C 251.78 224.66 251.76 225.01 251.72 225.35 C 251.78 225.02 251.82 224.68 251.82 224.33 L 251.79 224.33 Z" fill="#6e6e96" fill-opacity="0.15" fill-rule="nonzero" group-id="2,7,59" node-id="1144" stroke="none" target-height="10.3619995" target-width="137.769" target-x="114.056" target-y="224.331"></path></g><g node-id="1278"><g node-id="1330"><path d="M 10.30 235.32 L 1.25 235.32 C 0.42 235.32 -0.25 234.65 -0.25 233.82 C -0.25 233.00 0.42 232.32 1.25 232.32 L 10.30 232.32 C 11.13 232.32 11.80 233.00 11.80 233.82 C 11.80 234.65 11.13 235.32 10.30 235.32 Z" fill="#d8d8f5" fill-opacity="0.45" fill-rule="nonzero" group-id="2,8,60" node-id="1152" stroke="none" target-height="3" target-width="12.057" target-x="-0.252" target-y="232.324"></path></g><g node-id="1331"><path d="M 56.45 235.32 L 45.97 235.32 C 45.14 235.32 44.47 234.65 44.47 233.82 C 44.47 233.00 45.14 232.32 45.97 232.32 L 56.45 232.32 C 57.28 232.32 57.95 233.00 57.95 233.82 C 57.95 234.65 57.28 235.32 56.45 235.32 Z" fill="#d8d8f5" fill-opacity="0.45" fill-rule="nonzero" group-id="2,8,61" node-id="1157" stroke="none" target-height="3" target-width="13.483002" target-x="44.466" target-y="232.324"></path></g><g node-id="1332"><path d="M 68.20 235.32 L 63.07 235.32 C 62.24 235.32 61.57 234.65 61.57 233.82 C 61.57 233.00 62.24 232.32 63.07 232.32 L 68.20 232.32 C 69.03 232.32 69.70 233.00 69.70 233.82 C 69.70 234.65 69.03 235.32 68.20 235.32 Z" fill="#d8d8f5" fill-opacity="0.45" fill-rule="nonzero" group-id="2,8,62" node-id="1162" stroke="none" target-height="3" target-width="8.130997" target-x="61.567" target-y="232.324"></path></g><path d="M 51.28 227.14 C 51.28 230.96 48.16 234.08 44.34 234.08 L 13.59 234.08 C 9.78 234.08 6.65 230.96 6.65 227.14 L 6.65 160.20 C 6.65 156.39 9.78 153.27 13.59 153.27 L 44.34 153.27 C 48.16 153.27 51.28 156.39 51.28 160.20 L 51.28 227.14 L 51.28 227.14 L 51.28 227.14 Z" fill="#f0f0ff" fill-rule="nonzero" group-id="2,8" node-id="1165" stroke="none" target-height="80.81499" target-width="44.622" target-x="6.654" target-y="153.266"></path><path d="M 51.28 227.14 C 51.28 230.96 48.16 234.08 44.34 234.08 L 13.59 234.08 C 9.78 234.08 6.65 230.96 6.65 227.14 L 6.65 160.20 C 6.65 156.39 9.78 153.27 13.59 153.27 L 44.34 153.27 C 48.16 153.27 51.28 156.39 51.28 160.20 L 51.28 227.14 L 51.28 227.14 L 51.28 227.14 Z" fill="#ffffff" fill-rule="nonzero" group-id="2,8" node-id="1167" stroke="none" target-height="80.81499" target-width="44.622" target-x="6.654" target-y="153.266"></path><path d="M 6.66 162.10 L 51.28 162.10 L 51.28 224.57 L 6.66 224.57 Z" fill="#bddcff" fill-rule="nonzero" group-id="2,8" node-id="1169" stroke="none" target-height="62.470993" target-width="44.622" target-x="6.655" target-y="162.102"></path><path d="M 8.72 224.57 L 51.28 182.02 L 51.28 196.35 L 23.05 224.57 Z" fill="#deefff" fill-opacity="0.49" fill-rule="nonzero" group-id="2,8,63" node-id="1173" stroke="none" target-height="42.554993" target-width="42.557" target-x="8.72" target-y="182.016"></path><path d="M 51.28 196.35 L 23.05 224.57 L 51.28 224.57 Z" fill="#ffffff" fill-opacity="0.4" fill-rule="nonzero" group-id="2,8,64" node-id="1178" stroke="none" target-height="28.222992" target-width="28.225" target-x="23.052" target-y="196.348"></path><path d="M 6.66 160.06 L 51.28 160.06 L 51.28 163.06 L 6.66 163.06 Z" fill="#6e6e96" fill-rule="nonzero" group-id="2,8" node-id="1181" stroke="none" target-height="3" target-width="44.622" target-x="6.655" target-y="160.055"></path><path d="M 6.66 223.07 L 51.28 223.07 L 51.28 226.07 L 6.66 226.07 Z" fill="#6e6e96" fill-rule="nonzero" group-id="2,8" node-id="1183" stroke="none" target-height="3" target-width="44.622" target-x="6.655" target-y="223.071"></path><path d="M 31.98 158.49 L 25.95 158.49 C 25.40 158.49 24.95 158.04 24.95 157.49 C 24.95 156.94 25.40 156.49 25.95 156.49 L 31.98 156.49 C 32.53 156.49 32.98 156.94 32.98 157.49 C 32.98 158.04 32.53 158.49 31.98 158.49 Z" fill="#6e6e96" fill-rule="nonzero" group-id="2,8" node-id="1185" stroke="none" target-height="2" target-width="8.024" target-x="24.954" target-y="156.488"></path><path d="M 28.96 232.81 C 27.09 232.81 25.57 231.29 25.57 229.41 C 25.57 227.54 27.09 226.02 28.96 226.02 C 30.84 226.02 32.36 227.54 32.36 229.41 C 32.36 231.29 30.84 232.81 28.96 232.81 Z M 28.96 228.02 C 28.20 228.02 27.57 228.65 27.57 229.41 C 27.57 230.18 28.20 230.81 28.96 230.81 C 29.73 230.81 30.36 230.18 30.36 229.41 C 30.36 228.65 29.73 228.02 28.96 228.02 Z" fill="#6e6e96" fill-rule="nonzero" group-id="2,8" node-id="1187" stroke="none" target-height="6.7900085" target-width="6.7910004" target-x="25.569" target-y="226.019"></path><path d="M 51.28 161.56 L 6.66 161.56 L 6.66 224.57 L 8.72 224.57 L 8.72 163.67 L 51.28 163.67 Z" fill="#6e6e96" fill-opacity="0.15" fill-rule="nonzero" group-id="2,8,65" node-id="1191" stroke="none" target-height="63.016006" target-width="44.622" target-x="6.655" target-y="161.555"></path><path d="M 6.66 158.76 L 51.28 158.76 L 51.28 160.57 L 6.66 160.57 Z" fill="#6e6e96" fill-opacity="0.15" fill-rule="nonzero" group-id="2,8,66" node-id="1196" stroke="none" target-height="1.8119965" target-width="44.622" target-x="6.655" target-y="158.756"></path><path d="M 44.65 230.56 L 13.90 230.56 C 10.09 230.56 6.96 228.68 6.96 223.63 L 6.96 225.33 C 6.96 231.61 10.08 232.26 13.90 232.26 L 44.65 232.26 C 48.46 232.26 51.58 230.38 51.58 225.33 L 51.59 225.33 L 51.59 223.63 L 51.58 223.63 C 51.58 227.44 48.46 230.56 44.65 230.56 Z" fill="#6e6e96" fill-opacity="0.15" fill-rule="nonzero" group-id="2,8,67" node-id="1201" stroke="none" target-height="8.6380005" target-width="44.621998" target-x="6.963" target-y="223.626"></path><path d="M 18.60 165.73 L 18.60 207.19 L 48.18 207.19 L 48.18 165.73 L 18.60 165.73 Z M 18.60 221.19 L 48.18 221.19 L 48.18 209.47 L 18.60 209.47 L 18.60 221.19 Z" fill="#6e6e96" fill-opacity="0.51" fill-rule="nonzero" group-id="2,8,68" node-id="1206" stroke="none" target-height="55.461" target-width="29.577" target-x="18.604" target-y="165.73"></path><path d="M 20.62 172.44 L 25.21 172.44 L 25.21 173.44 L 20.62 173.44 Z" fill="#a1ffd2" fill-rule="nonzero" group-id="2,8,69" node-id="1211" stroke="none" target-height="1" target-width="4.594" target-x="20.621" target-y="172.443"></path><path d="M 28.57 172.44 L 36.52 172.44 L 36.52 173.44 L 28.57 173.44 Z" fill="#ccccde" fill-rule="nonzero" group-id="2,8,69" node-id="1213" stroke="none" target-height="1" target-width="7.949999" target-x="28.572" target-y="172.443"></path><path d="M 20.62 174.65 L 29.45 174.65 L 29.45 175.65 L 20.62 175.65 Z" fill="#fcbaff" fill-rule="nonzero" group-id="2,8,69" node-id="1215" stroke="none" target-height="1" target-width="8.834" target-x="20.621" target-y="174.645"></path><path d="M 32.28 174.65 L 36.17 174.65 L 36.17 175.65 L 32.28 175.65 Z" fill="#ccccde" fill-rule="nonzero" group-id="2,8,69" node-id="1217" stroke="none" target-height="1" target-width="3.8869972" target-x="32.282" target-y="174.645"></path><path d="M 20.62 177.21 L 26.10 177.21 L 26.10 178.21 L 20.62 178.21 Z" fill="#ccccde" fill-rule="nonzero" group-id="2,8,69" node-id="1219" stroke="none" target-height="1" target-width="5.4769993" target-x="20.621" target-y="177.21"></path><path d="M 29.10 177.21 L 31.22 177.21 L 31.22 178.21 L 29.10 178.21 Z" fill="#fcbaff" fill-rule="nonzero" group-id="2,8,69" node-id="1221" stroke="none" target-height="1" target-width="2.1200008" target-x="29.101" target-y="177.21"></path><path d="M 20.62 179.59 L 27.69 179.59 L 27.69 180.59 L 20.62 180.59 Z" fill="#ccccde" fill-rule="nonzero" group-id="2,8,69" node-id="1223" stroke="none" target-height="1" target-width="7.066" target-x="20.621" target-y="179.593"></path><path d="M 24.51 181.79 L 31.40 181.79 L 31.40 182.79 L 24.51 182.79 Z" fill="#ccccde" fill-rule="nonzero" group-id="2,8,69" node-id="1225" stroke="none" target-height="1" target-width="6.8900013" target-x="24.508" target-y="181.792"></path><path d="M 34.23 181.79 L 36.52 181.79 L 36.52 182.79 L 34.23 182.79 Z" fill="#fcbaff" fill-rule="nonzero" group-id="2,8,69" node-id="1227" stroke="none" target-height="1" target-width="2.297001" target-x="34.225" target-y="181.792"></path><path d="M 37.58 181.79 L 46.59 181.79 L 46.59 182.79 L 37.58 182.79 Z" fill="#ccccde" fill-rule="nonzero" group-id="2,8,69" node-id="1229" stroke="none" target-height="1" target-width="9.010998" target-x="37.582" target-y="181.792"></path><path d="M 20.62 184.54 L 22.21 184.54 L 22.21 185.54 L 20.62 185.54 Z" fill="#ccccde" fill-rule="nonzero" group-id="2,8,69" node-id="1231" stroke="none" target-height="1" target-width="1.5900002" target-x="20.621" target-y="184.542"></path><path d="M 20.62 186.93 L 24.77 186.93 L 24.77 187.93 L 20.62 187.93 Z" fill="#ccccde" fill-rule="nonzero" group-id="2,8,69" node-id="1233" stroke="none" target-height="1" target-width="4.150999" target-x="20.621" target-y="186.928"></path><path d="M 20.62 189.31 L 26.85 189.31 L 26.85 190.31 L 20.62 190.31 Z" fill="#ccccde" fill-rule="nonzero" group-id="2,8,69" node-id="1235" stroke="none" target-height="1" target-width="6.2269993" target-x="20.621" target-y="189.309"></path><path d="M 30.34 189.31 L 32.28 189.31 L 32.28 190.31 L 30.34 190.31 Z" fill="#ccccde" fill-rule="nonzero" group-id="2,8,69" node-id="1237" stroke="none" target-height="1" target-width="1.9440022" target-x="30.338" target-y="189.309"></path><path d="M 20.62 192.24 L 28.04 192.24 L 28.04 193.24 L 20.62 193.24 Z" fill="#a1ffd2" fill-rule="nonzero" group-id="2,8,69" node-id="1239" stroke="none" target-height="1" target-width="7.42" target-x="20.621" target-y="192.244"></path><path d="M 23.09 194.63 L 28.93 194.63 L 28.93 195.63 L 23.09 195.63 Z" fill="#ccccde" fill-rule="nonzero" group-id="2,8,69" node-id="1241" stroke="none" target-height="1" target-width="5.8309994" target-x="23.094" target-y="194.627"></path><path d="M 30.34 194.63 L 32.64 194.63 L 32.64 195.63 L 30.34 195.63 Z" fill="#ccccde" fill-rule="nonzero" group-id="2,8,69" node-id="1243" stroke="none" target-height="1" target-width="2.2980022" target-x="30.338" target-y="194.627"></path><path d="M 35.11 194.63 L 37.23 194.63 L 37.23 195.63 L 35.11 195.63 Z" fill="#ccccde" fill-rule="nonzero" group-id="2,8,69" node-id="1245" stroke="none" target-height="1" target-width="2.119999" target-x="35.109" target-y="194.627"></path><path d="M 23.09 197.38 L 31.75 197.38 L 31.75 198.38 L 23.09 198.38 Z" fill="#fcbaff" fill-rule="nonzero" group-id="2,8,69" node-id="1247" stroke="none" target-height="1" target-width="8.657" target-x="23.094" target-y="197.376"></path><path d="M 35.11 197.38 L 36.52 197.38 L 36.52 198.38 L 35.11 198.38 Z" fill="#ccccde" fill-rule="nonzero" group-id="2,8,69" node-id="1249" stroke="none" target-height="1" target-width="1.4129982" target-x="35.109" target-y="197.376"></path><path d="M 20.62 199.94 L 22.39 199.94 L 22.39 200.94 L 20.62 200.94 Z" fill="#ccccde" fill-rule="nonzero" group-id="2,8,69" node-id="1251" stroke="none" target-height="1" target-width="1.7649994" target-x="20.621" target-y="199.941"></path><path d="M 10.04 165.73 L 16.04 165.73 L 16.04 221.19 L 10.04 221.19 Z" fill="#6e6e96" fill-opacity="0.51" fill-rule="nonzero" group-id="2,8,70" node-id="1256" stroke="none" target-height="55.461" target-width="6.002001" target-x="10.042" target-y="165.73"></path><path d="M 7.12 177.14 L 17.79 164.39 L 36.91 164.39 L 7.41 195.98 Z" fill="#ffffff" fill-opacity="0.17" fill-rule="nonzero" group-id="2,8,71" node-id="1261" stroke="none" target-height="31.585999" target-width="29.785" target-x="7.123" target-y="164.393"></path><path d="M 46.10 164.39 L 8.03 202.47 L 7.98 207.91 L 51.51 164.39 Z" fill="#ffffff" fill-opacity="0.2" fill-rule="nonzero" group-id="2,8,72" node-id="1266" stroke="none" target-height="43.51999" target-width="43.522" target-x="7.984" target-y="164.393"></path><path d="M 44.34 235.58 L 13.59 235.58 C 7.68 235.58 5.15 233.06 5.15 227.14 L 5.15 160.20 C 5.15 154.29 7.68 151.76 13.59 151.76 L 44.34 151.76 C 50.25 151.76 52.78 154.29 52.78 160.20 L 52.78 227.14 C 52.78 233.06 50.25 235.58 44.34 235.58 Z M 13.59 154.77 C 9.37 154.77 8.15 155.99 8.15 160.20 L 8.15 227.14 C 8.15 231.36 9.37 232.58 13.59 232.58 L 44.34 232.58 C 48.56 232.58 49.78 231.36 49.78 227.14 L 49.78 160.20 C 49.78 155.99 48.56 154.77 44.34 154.77 L 13.59 154.77 Z" fill="#6e6e96" fill-rule="nonzero" group-id="2,8" node-id="1269" stroke="none" target-height="83.815" target-width="47.622" target-x="5.154" target-y="151.765"></path></g></g></svg>